<mxfile host="app.diagrams.net" agent="Mozilla/5.0 (Macintosh; Intel Mac OS X 10.15; rv:141.0) Gecko/20100101 Firefox/141.0" version="28.0.7" pages="2">
  <diagram name="Page-1" id="OAfIW-DoVNaX7ueY04fr">
    <mxGraphModel dx="4606" dy="2160" grid="1" gridSize="10" guides="1" tooltips="1" connect="1" arrows="1" fold="1" page="1" pageScale="1" pageWidth="850" pageHeight="1100" background="light-dark(#FFFFFF,#FFFFFF)" math="0" shadow="0">
      <root>
        <mxCell id="0" />
        <mxCell id="1" parent="0" />
        <mxCell id="sh2_wesA82XfefLjtwE--1" value="Ops / Security / Integrations" style="whiteSpace=wrap;strokeWidth=1;fillColor=#e51400;fontColor=#ffffff;strokeColor=light-dark(#B20000,#0000FF);shadow=0;labelBackgroundColor=none;labelBorderColor=none;fontFamily=Comic Sans MS;enumerate=0;backgroundOutline=0;metaEdit=0;" parent="1" vertex="1">
          <mxGeometry x="20" y="20" width="2002" height="841" as="geometry" />
        </mxCell>
        <mxCell id="sh2_wesA82XfefLjtwE--2" value="Deploy / Serve" style="whiteSpace=wrap;strokeWidth=1;fillColor=#a20025;fontColor=#ffffff;strokeColor=light-dark(#B20000,#0000FF);shadow=0;labelBackgroundColor=none;labelBorderColor=none;fontFamily=Comic Sans MS;enumerate=0;backgroundOutline=0;metaEdit=0;" parent="1" vertex="1">
          <mxGeometry x="1840" y="960" width="620" height="964" as="geometry" />
        </mxCell>
        <mxCell id="sh2_wesA82XfefLjtwE--3" value="Features" style="whiteSpace=wrap;strokeWidth=1;fillColor=#1ba1e2;fontColor=#ffffff;strokeColor=light-dark(#B20000,#0000FF);shadow=0;labelBackgroundColor=none;labelBorderColor=none;fontFamily=Comic Sans MS;enumerate=0;backgroundOutline=0;metaEdit=0;" parent="1" vertex="1">
          <mxGeometry x="1042" y="1796" width="310" height="197" as="geometry" />
        </mxCell>
        <mxCell id="sh2_wesA82XfefLjtwE--4" value="Train &amp; Tune" style="whiteSpace=wrap;strokeWidth=1;fillColor=#008a00;fontColor=#ffffff;strokeColor=light-dark(#B20000,#0000FF);shadow=0;labelBackgroundColor=none;labelBorderColor=none;fontFamily=Comic Sans MS;enumerate=0;backgroundOutline=0;metaEdit=0;" parent="1" vertex="1">
          <mxGeometry x="-840" y="840" width="642" height="332" as="geometry" />
        </mxCell>
        <mxCell id="sh2_wesA82XfefLjtwE--5" value="Orchestrate &amp; Govern" style="whiteSpace=wrap;strokeWidth=1;fillColor=#6a00ff;fontColor=#ffffff;strokeColor=light-dark(#B20000,#0000FF);shadow=0;labelBackgroundColor=none;labelBorderColor=none;fontFamily=Comic Sans MS;enumerate=0;backgroundOutline=0;metaEdit=0;" parent="1" vertex="1">
          <mxGeometry x="711" y="897" width="642" height="745" as="geometry" />
        </mxCell>
        <mxCell id="sh2_wesA82XfefLjtwE--6" value="Build" style="whiteSpace=wrap;strokeWidth=1;fillColor=#0050ef;fontColor=#ffffff;strokeColor=light-dark(#B20000,#0000FF);shadow=0;labelBackgroundColor=none;labelBorderColor=none;fontFamily=Comic Sans MS;enumerate=0;backgroundOutline=0;metaEdit=0;" parent="1" vertex="1">
          <mxGeometry x="20" y="1120" width="641" height="564" as="geometry" />
        </mxCell>
        <mxCell id="sh2_wesA82XfefLjtwE--7" value="Studio / Notebooks" style="whiteSpace=wrap;strokeWidth=1;shadow=0;labelBackgroundColor=none;labelBorderColor=none;fontFamily=Comic Sans MS;enumerate=0;backgroundOutline=0;metaEdit=0;strokeColor=light-dark(#B20000,#0000FF);" parent="1" vertex="1">
          <mxGeometry x="407" y="1155" width="197" height="54" as="geometry" />
        </mxCell>
        <mxCell id="sh2_wesA82XfefLjtwE--8" value="JumpStart (prebuilt models)" style="whiteSpace=wrap;strokeWidth=1;shadow=0;labelBackgroundColor=none;labelBorderColor=none;fontFamily=Comic Sans MS;enumerate=0;backgroundOutline=0;metaEdit=0;strokeColor=light-dark(#B20000,#0000FF);" parent="1" vertex="1">
          <mxGeometry x="376" y="1259" width="260" height="78" as="geometry" />
        </mxCell>
        <mxCell id="sh2_wesA82XfefLjtwE--9" value="Canvas (no-code)" style="whiteSpace=wrap;strokeWidth=1;shadow=0;labelBackgroundColor=none;labelBorderColor=none;fontFamily=Comic Sans MS;enumerate=0;backgroundOutline=0;metaEdit=0;strokeColor=light-dark(#B20000,#0000FF);" parent="1" vertex="1">
          <mxGeometry x="414" y="1387" width="183" height="54" as="geometry" />
        </mxCell>
        <mxCell id="sh2_wesA82XfefLjtwE--10" value="RStudio on SageMaker" style="whiteSpace=wrap;strokeWidth=1;shadow=0;labelBackgroundColor=none;labelBorderColor=none;fontFamily=Comic Sans MS;enumerate=0;backgroundOutline=0;metaEdit=0;strokeColor=light-dark(#B20000,#0000FF);" parent="1" vertex="1">
          <mxGeometry x="397" y="1491" width="217" height="54" as="geometry" />
        </mxCell>
        <mxCell id="sh2_wesA82XfefLjtwE--11" value="Data Wrangler" style="whiteSpace=wrap;strokeWidth=1;shadow=0;labelBackgroundColor=none;labelBorderColor=none;fontFamily=Comic Sans MS;enumerate=0;backgroundOutline=0;metaEdit=0;strokeColor=light-dark(#B20000,#0000FF);" parent="1" vertex="1">
          <mxGeometry x="88" y="1300" width="162" height="54" as="geometry" />
        </mxCell>
        <mxCell id="sh2_wesA82XfefLjtwE--12" value="Ground Truth (labeling)" style="whiteSpace=wrap;strokeWidth=1;shadow=0;labelBackgroundColor=none;labelBorderColor=none;fontFamily=Comic Sans MS;enumerate=0;backgroundOutline=0;metaEdit=0;strokeColor=light-dark(#B20000,#0000FF);" parent="1" vertex="1">
          <mxGeometry x="59" y="1427" width="228" height="54" as="geometry" />
        </mxCell>
        <mxCell id="sh2_wesA82XfefLjtwE--13" value="Clarify (data &amp; bias stats)" style="whiteSpace=wrap;strokeWidth=1;shadow=0;labelBackgroundColor=none;labelBorderColor=none;fontFamily=Comic Sans MS;enumerate=0;backgroundOutline=0;metaEdit=0;strokeColor=light-dark(#B20000,#0000FF);" parent="1" vertex="1">
          <mxGeometry x="384" y="1595" width="244" height="54" as="geometry" />
        </mxCell>
        <mxCell id="sh2_wesA82XfefLjtwE--14" value="Pipelines (CI/CD for ML)" style="whiteSpace=wrap;strokeWidth=1;shadow=0;labelBackgroundColor=none;labelBorderColor=none;fontFamily=Comic Sans MS;enumerate=0;backgroundOutline=0;metaEdit=0;strokeColor=light-dark(#B20000,#0000FF);" parent="1" vertex="1">
          <mxGeometry x="736" y="1212" width="232" height="54" as="geometry" />
        </mxCell>
        <mxCell id="sh2_wesA82XfefLjtwE--15" value="Projects &amp; Templates" style="whiteSpace=wrap;strokeWidth=1;shadow=0;labelBackgroundColor=none;labelBorderColor=none;fontFamily=Comic Sans MS;enumerate=0;backgroundOutline=0;metaEdit=0;strokeColor=light-dark(#B20000,#0000FF);" parent="1" vertex="1">
          <mxGeometry x="1091" y="932" width="212" height="54" as="geometry" />
        </mxCell>
        <mxCell id="sh2_wesA82XfefLjtwE--16" value="Model Registry" style="whiteSpace=wrap;strokeWidth=1;shadow=0;labelBackgroundColor=none;labelBorderColor=none;fontFamily=Comic Sans MS;enumerate=0;backgroundOutline=0;metaEdit=0;strokeColor=light-dark(#B20000,#0000FF);" parent="1" vertex="1">
          <mxGeometry x="1115" y="1212" width="164" height="54" as="geometry" />
        </mxCell>
        <mxCell id="sh2_wesA82XfefLjtwE--17" value="Lineage &amp; Experiments" style="whiteSpace=wrap;strokeWidth=1;shadow=0;labelBackgroundColor=none;labelBorderColor=none;fontFamily=Comic Sans MS;enumerate=0;backgroundOutline=0;metaEdit=0;strokeColor=light-dark(#B20000,#0000FF);" parent="1" vertex="1">
          <mxGeometry x="1085" y="1397" width="225" height="54" as="geometry" />
        </mxCell>
        <mxCell id="sh2_wesA82XfefLjtwE--18" value="Model Cards" style="whiteSpace=wrap;strokeWidth=1;shadow=0;labelBackgroundColor=none;labelBorderColor=none;fontFamily=Comic Sans MS;enumerate=0;backgroundOutline=0;metaEdit=0;strokeColor=light-dark(#B20000,#0000FF);" parent="1" vertex="1">
          <mxGeometry x="1124" y="1501" width="147" height="54" as="geometry" />
        </mxCell>
        <mxCell id="sh2_wesA82XfefLjtwE--19" value="Processing Jobs" style="whiteSpace=wrap;strokeWidth=1;shadow=0;labelBackgroundColor=none;labelBorderColor=none;fontFamily=Comic Sans MS;enumerate=0;backgroundOutline=0;metaEdit=0;strokeColor=light-dark(#B20000,#0000FF);" parent="1" vertex="1">
          <mxGeometry x="-425" y="875" width="170" height="54" as="geometry" />
        </mxCell>
        <mxCell id="sh2_wesA82XfefLjtwE--20" value="Training Jobs" style="whiteSpace=wrap;strokeWidth=1;shadow=0;labelBackgroundColor=none;labelBorderColor=none;fontFamily=Comic Sans MS;enumerate=0;backgroundOutline=0;metaEdit=0;strokeColor=light-dark(#B20000,#0000FF);" parent="1" vertex="1">
          <mxGeometry x="-416" y="979" width="153" height="54" as="geometry" />
        </mxCell>
        <mxCell id="sh2_wesA82XfefLjtwE--21" value="Automatic Model Tuning" style="whiteSpace=wrap;strokeWidth=1;shadow=0;labelBackgroundColor=none;labelBorderColor=none;fontFamily=Comic Sans MS;enumerate=0;backgroundOutline=0;metaEdit=0;strokeColor=light-dark(#B20000,#0000FF);" parent="1" vertex="1">
          <mxGeometry x="-801" y="1017" width="232" height="54" as="geometry" />
        </mxCell>
        <mxCell id="sh2_wesA82XfefLjtwE--22" value="Distributed Training" style="whiteSpace=wrap;strokeWidth=1;shadow=0;labelBackgroundColor=none;labelBorderColor=none;fontFamily=Comic Sans MS;enumerate=0;backgroundOutline=0;metaEdit=0;strokeColor=light-dark(#B20000,#0000FF);" parent="1" vertex="1">
          <mxGeometry x="-786" y="913" width="201" height="54" as="geometry" />
        </mxCell>
        <mxCell id="sh2_wesA82XfefLjtwE--23" value="Debugger &amp; Profiler" style="whiteSpace=wrap;strokeWidth=1;shadow=0;labelBackgroundColor=none;labelBorderColor=none;fontFamily=Comic Sans MS;enumerate=0;backgroundOutline=0;metaEdit=0;strokeColor=light-dark(#B20000,#0000FF);" parent="1" vertex="1">
          <mxGeometry x="-440" y="1083" width="201" height="54" as="geometry" />
        </mxCell>
        <mxCell id="sh2_wesA82XfefLjtwE--24" value="Feature Store (online/offline)" style="whiteSpace=wrap;strokeWidth=1;shadow=0;labelBackgroundColor=none;labelBorderColor=none;fontFamily=Comic Sans MS;enumerate=0;backgroundOutline=0;metaEdit=0;strokeColor=light-dark(#B20000,#0000FF);" parent="1" vertex="1">
          <mxGeometry x="1067" y="1867" width="260" height="78" as="geometry" />
        </mxCell>
        <mxCell id="sh2_wesA82XfefLjtwE--25" value="Real-time Endpoints" style="whiteSpace=wrap;strokeWidth=1;shadow=0;labelBackgroundColor=none;labelBorderColor=none;fontFamily=Comic Sans MS;enumerate=0;backgroundOutline=0;metaEdit=0;strokeColor=light-dark(#B20000,#0000FF);" parent="1" vertex="1">
          <mxGeometry x="1893" y="1294" width="204" height="54" as="geometry" />
        </mxCell>
        <mxCell id="sh2_wesA82XfefLjtwE--26" value="Serverless Inference" style="whiteSpace=wrap;strokeWidth=1;shadow=0;labelBackgroundColor=none;labelBorderColor=none;fontFamily=Comic Sans MS;enumerate=0;backgroundOutline=0;metaEdit=0;strokeColor=light-dark(#B20000,#0000FF);" parent="1" vertex="1">
          <mxGeometry x="1893" y="1427" width="205" height="54" as="geometry" />
        </mxCell>
        <mxCell id="sh2_wesA82XfefLjtwE--27" value="Multi-Model Endpoints (MME)" style="whiteSpace=wrap;strokeWidth=1;shadow=0;labelBackgroundColor=none;labelBorderColor=none;fontFamily=Comic Sans MS;enumerate=0;backgroundOutline=0;metaEdit=0;strokeColor=light-dark(#B20000,#0000FF);" parent="1" vertex="1">
          <mxGeometry x="1865" y="1758" width="260" height="78" as="geometry" />
        </mxCell>
        <mxCell id="sh2_wesA82XfefLjtwE--28" value="Asynchronous Inference" style="whiteSpace=wrap;strokeWidth=1;shadow=0;labelBackgroundColor=none;labelBorderColor=none;fontFamily=Comic Sans MS;enumerate=0;backgroundOutline=0;metaEdit=0;strokeColor=light-dark(#B20000,#0000FF);" parent="1" vertex="1">
          <mxGeometry x="1880" y="1595" width="230" height="54" as="geometry" />
        </mxCell>
        <mxCell id="sh2_wesA82XfefLjtwE--29" value="Batch Transform" style="whiteSpace=wrap;strokeWidth=1;shadow=0;labelBackgroundColor=none;labelBorderColor=none;fontFamily=Comic Sans MS;enumerate=0;backgroundOutline=0;metaEdit=0;strokeColor=light-dark(#B20000,#0000FF);" parent="1" vertex="1">
          <mxGeometry x="1998" y="1110" width="177" height="54" as="geometry" />
        </mxCell>
        <mxCell id="sh2_wesA82XfefLjtwE--30" value="Inference Recommender" style="whiteSpace=wrap;strokeWidth=1;shadow=0;labelBackgroundColor=none;labelBorderColor=none;fontFamily=Comic Sans MS;enumerate=0;backgroundOutline=0;metaEdit=0;strokeColor=light-dark(#B20000,#0000FF);" parent="1" vertex="1">
          <mxGeometry x="2188" y="1031" width="235" height="54" as="geometry" />
        </mxCell>
        <mxCell id="sh2_wesA82XfefLjtwE--31" value="Canary / A-B / Shadow" style="whiteSpace=wrap;strokeWidth=1;shadow=0;labelBackgroundColor=none;labelBorderColor=none;fontFamily=Comic Sans MS;enumerate=0;backgroundOutline=0;metaEdit=0;strokeColor=light-dark(#B20000,#0000FF);" parent="1" vertex="1">
          <mxGeometry x="2193" y="1135" width="224" height="54" as="geometry" />
        </mxCell>
        <mxCell id="sh2_wesA82XfefLjtwE--32" value="Model Monitor + Clarify (inference)" style="whiteSpace=wrap;strokeWidth=1;shadow=0;labelBackgroundColor=none;labelBorderColor=none;fontFamily=Comic Sans MS;enumerate=0;backgroundOutline=0;metaEdit=0;strokeColor=light-dark(#B20000,#0000FF);" parent="1" vertex="1">
          <mxGeometry x="2175" y="1366" width="260" height="78" as="geometry" />
        </mxCell>
        <mxCell id="sh2_wesA82XfefLjtwE--33" value="IAM Roles / STS" style="whiteSpace=wrap;strokeWidth=1;shadow=0;labelBackgroundColor=none;labelBorderColor=none;fontFamily=Comic Sans MS;enumerate=0;backgroundOutline=0;metaEdit=0;strokeColor=light-dark(#B20000,#0000FF);" parent="1" vertex="1">
          <mxGeometry x="88" y="174" width="170" height="54" as="geometry" />
        </mxCell>
        <mxCell id="sh2_wesA82XfefLjtwE--34" value="VPC, SG, NACL, PrivateLink" style="whiteSpace=wrap;strokeWidth=1;shadow=0;labelBackgroundColor=none;labelBorderColor=none;fontFamily=Comic Sans MS;enumerate=0;backgroundOutline=0;metaEdit=0;strokeColor=light-dark(#B20000,#0000FF);" parent="1" vertex="1">
          <mxGeometry x="45" y="278" width="256" height="54" as="geometry" />
        </mxCell>
        <mxCell id="sh2_wesA82XfefLjtwE--35" value="KMS (encryption)" style="whiteSpace=wrap;strokeWidth=1;shadow=0;labelBackgroundColor=none;labelBorderColor=none;fontFamily=Comic Sans MS;enumerate=0;backgroundOutline=0;metaEdit=0;strokeColor=light-dark(#B20000,#0000FF);" parent="1" vertex="1">
          <mxGeometry x="968" y="510" width="182" height="54" as="geometry" />
        </mxCell>
        <mxCell id="sh2_wesA82XfefLjtwE--36" value="Amazon S3" style="whiteSpace=wrap;strokeWidth=1;shadow=0;labelBackgroundColor=none;labelBorderColor=none;fontFamily=Comic Sans MS;enumerate=0;backgroundOutline=0;metaEdit=0;strokeColor=light-dark(#B20000,#0000FF);" parent="1" vertex="1">
          <mxGeometry x="20" y="670" width="137" height="54" as="geometry" />
        </mxCell>
        <mxCell id="sh2_wesA82XfefLjtwE--37" value="Amazon ECR" style="whiteSpace=wrap;strokeWidth=1;shadow=0;labelBackgroundColor=none;labelBorderColor=none;fontFamily=Comic Sans MS;enumerate=0;backgroundOutline=0;metaEdit=0;strokeColor=light-dark(#B20000,#0000FF);" parent="1" vertex="1">
          <mxGeometry x="640" y="740" width="148" height="54" as="geometry" />
        </mxCell>
        <mxCell id="sh2_wesA82XfefLjtwE--38" value="CloudWatch" style="whiteSpace=wrap;strokeWidth=1;shadow=0;labelBackgroundColor=none;labelBorderColor=none;fontFamily=Comic Sans MS;enumerate=0;backgroundOutline=0;metaEdit=0;strokeColor=light-dark(#B20000,#0000FF);" parent="1" vertex="1">
          <mxGeometry x="1795" y="372" width="145" height="54" as="geometry" />
        </mxCell>
        <mxCell id="sh2_wesA82XfefLjtwE--39" value="CloudTrail" style="whiteSpace=wrap;strokeWidth=1;shadow=0;labelBackgroundColor=none;labelBorderColor=none;fontFamily=Comic Sans MS;enumerate=0;backgroundOutline=0;metaEdit=0;strokeColor=light-dark(#B20000,#0000FF);" parent="1" vertex="1">
          <mxGeometry x="1801" y="476" width="132" height="54" as="geometry" />
        </mxCell>
        <mxCell id="sh2_wesA82XfefLjtwE--40" value="EventBridge" style="whiteSpace=wrap;strokeWidth=1;shadow=0;labelBackgroundColor=none;labelBorderColor=none;fontFamily=Comic Sans MS;enumerate=0;backgroundOutline=0;metaEdit=0;strokeColor=light-dark(#B20000,#0000FF);" parent="1" vertex="1">
          <mxGeometry x="433" y="380" width="146" height="54" as="geometry" />
        </mxCell>
        <mxCell id="sh2_wesA82XfefLjtwE--41" value="Step Functions" style="whiteSpace=wrap;strokeWidth=1;shadow=0;labelBackgroundColor=none;labelBorderColor=none;fontFamily=Comic Sans MS;enumerate=0;backgroundOutline=0;metaEdit=0;strokeColor=light-dark(#B20000,#0000FF);" parent="1" vertex="1">
          <mxGeometry x="423" y="484" width="165" height="54" as="geometry" />
        </mxCell>
        <mxCell id="sh2_wesA82XfefLjtwE--42" value="" style="startArrow=none;endArrow=block;exitX=1;exitY=0.5;entryX=0.21;entryY=0;rounded=0;shadow=0;labelBackgroundColor=none;labelBorderColor=none;fontFamily=Comic Sans MS;enumerate=0;backgroundOutline=0;metaEdit=0;strokeWidth=1;strokeColor=light-dark(#B20000,#0000FF);sourcePerimeterSpacing=5;sketch=1;curveFitting=1;jiggle=2;edgeStyle=orthogonalEdgeStyle;curved=1;flowAnimation=0;fixDash=0;noJump=0;disableMultiStroke=0;" parent="1" source="sh2_wesA82XfefLjtwE--7" target="sh2_wesA82XfefLjtwE--14" edge="1">
          <mxGeometry relative="1" as="geometry" />
        </mxCell>
        <mxCell id="sh2_wesA82XfefLjtwE--43" value="" style="startArrow=none;endArrow=block;exitX=1;exitY=0.5;entryX=0.46;entryY=1;rounded=0;shadow=0;labelBackgroundColor=none;labelBorderColor=none;fontFamily=Comic Sans MS;enumerate=0;backgroundOutline=0;metaEdit=0;strokeWidth=1;strokeColor=light-dark(#B20000,#0000FF);sourcePerimeterSpacing=5;sketch=1;curveFitting=1;jiggle=2;edgeStyle=orthogonalEdgeStyle;curved=1;flowAnimation=0;fixDash=0;noJump=0;disableMultiStroke=0;" parent="1" source="sh2_wesA82XfefLjtwE--11" target="sh2_wesA82XfefLjtwE--36" edge="1">
          <mxGeometry relative="1" as="geometry" />
        </mxCell>
        <mxCell id="sh2_wesA82XfefLjtwE--44" value="" style="startArrow=none;endArrow=block;exitX=1;exitY=0.5;entryX=0.46;entryY=1;rounded=0;shadow=0;labelBackgroundColor=none;labelBorderColor=none;fontFamily=Comic Sans MS;enumerate=0;backgroundOutline=0;metaEdit=0;strokeWidth=1;strokeColor=light-dark(#B20000,#0000FF);sourcePerimeterSpacing=5;sketch=1;curveFitting=1;jiggle=2;edgeStyle=orthogonalEdgeStyle;curved=1;flowAnimation=0;fixDash=0;noJump=0;disableMultiStroke=0;" parent="1" source="sh2_wesA82XfefLjtwE--12" target="sh2_wesA82XfefLjtwE--36" edge="1">
          <mxGeometry relative="1" as="geometry" />
        </mxCell>
        <mxCell id="sh2_wesA82XfefLjtwE--45" value="" style="startArrow=none;endArrow=block;exitX=1;exitY=0.5;entryX=0.45;entryY=1;rounded=0;shadow=0;labelBackgroundColor=none;labelBorderColor=none;fontFamily=Comic Sans MS;enumerate=0;backgroundOutline=0;metaEdit=0;strokeWidth=1;strokeColor=light-dark(#B20000,#0000FF);sourcePerimeterSpacing=5;sketch=1;curveFitting=1;jiggle=2;edgeStyle=orthogonalEdgeStyle;curved=1;flowAnimation=0;fixDash=0;noJump=0;disableMultiStroke=0;" parent="1" source="sh2_wesA82XfefLjtwE--13" target="sh2_wesA82XfefLjtwE--14" edge="1">
          <mxGeometry relative="1" as="geometry" />
        </mxCell>
        <mxCell id="sh2_wesA82XfefLjtwE--46" value="" style="startArrow=none;endArrow=block;exitX=1;exitY=0.08;entryX=0.48;entryY=0;rounded=0;shadow=0;labelBackgroundColor=none;labelBorderColor=none;fontFamily=Comic Sans MS;enumerate=0;backgroundOutline=0;metaEdit=0;strokeWidth=1;strokeColor=light-dark(#B20000,#0000FF);sourcePerimeterSpacing=5;sketch=1;curveFitting=1;jiggle=2;edgeStyle=orthogonalEdgeStyle;curved=1;flowAnimation=0;fixDash=0;noJump=0;disableMultiStroke=0;" parent="1" source="sh2_wesA82XfefLjtwE--36" target="sh2_wesA82XfefLjtwE--19" edge="1">
          <mxGeometry relative="1" as="geometry" />
        </mxCell>
        <mxCell id="sh2_wesA82XfefLjtwE--47" value="" style="startArrow=none;endArrow=block;exitX=1;exitY=0.93;entryX=0.48;entryY=0;rounded=0;shadow=0;labelBackgroundColor=none;labelBorderColor=none;fontFamily=Comic Sans MS;enumerate=0;backgroundOutline=0;metaEdit=0;strokeWidth=1;strokeColor=light-dark(#B20000,#0000FF);sourcePerimeterSpacing=5;sketch=1;curveFitting=1;jiggle=2;edgeStyle=orthogonalEdgeStyle;curved=1;flowAnimation=0;fixDash=0;noJump=0;disableMultiStroke=0;" parent="1" source="sh2_wesA82XfefLjtwE--36" target="sh2_wesA82XfefLjtwE--20" edge="1">
          <mxGeometry relative="1" as="geometry" />
        </mxCell>
        <mxCell id="sh2_wesA82XfefLjtwE--48" value="" style="startArrow=none;endArrow=block;exitX=1.01;exitY=0.5;entryX=0.48;entryY=0;rounded=0;shadow=0;labelBackgroundColor=none;labelBorderColor=none;fontFamily=Comic Sans MS;enumerate=0;backgroundOutline=0;metaEdit=0;strokeWidth=1;strokeColor=light-dark(#B20000,#0000FF);sourcePerimeterSpacing=5;sketch=1;curveFitting=1;jiggle=2;edgeStyle=orthogonalEdgeStyle;curved=1;flowAnimation=0;fixDash=0;noJump=0;disableMultiStroke=0;" parent="1" source="sh2_wesA82XfefLjtwE--37" target="sh2_wesA82XfefLjtwE--20" edge="1">
          <mxGeometry relative="1" as="geometry" />
        </mxCell>
        <mxCell id="sh2_wesA82XfefLjtwE--49" value="" style="startArrow=none;endArrow=block;exitX=1;exitY=0.5;entryX=0.12;entryY=0;rounded=0;shadow=0;labelBackgroundColor=none;labelBorderColor=none;fontFamily=Comic Sans MS;enumerate=0;backgroundOutline=0;metaEdit=0;strokeWidth=1;strokeColor=light-dark(#B20000,#0000FF);sourcePerimeterSpacing=5;sketch=1;curveFitting=1;jiggle=2;edgeStyle=orthogonalEdgeStyle;curved=1;flowAnimation=0;fixDash=0;noJump=0;disableMultiStroke=0;" parent="1" source="sh2_wesA82XfefLjtwE--22" target="sh2_wesA82XfefLjtwE--20" edge="1">
          <mxGeometry relative="1" as="geometry" />
        </mxCell>
        <mxCell id="sh2_wesA82XfefLjtwE--50" value="" style="startArrow=none;endArrow=block;exitX=1;exitY=0.5;entryX=0;entryY=0.88;rounded=0;shadow=0;labelBackgroundColor=none;labelBorderColor=none;fontFamily=Comic Sans MS;enumerate=0;backgroundOutline=0;metaEdit=0;strokeWidth=1;strokeColor=light-dark(#B20000,#0000FF);sourcePerimeterSpacing=5;sketch=1;curveFitting=1;jiggle=2;edgeStyle=orthogonalEdgeStyle;curved=1;flowAnimation=0;fixDash=0;noJump=0;disableMultiStroke=0;" parent="1" source="sh2_wesA82XfefLjtwE--21" target="sh2_wesA82XfefLjtwE--20" edge="1">
          <mxGeometry relative="1" as="geometry" />
        </mxCell>
        <mxCell id="sh2_wesA82XfefLjtwE--51" value="" style="startArrow=none;endArrow=block;exitX=0.48;exitY=0;entryX=1;entryY=0.51;rounded=0;shadow=0;labelBackgroundColor=none;labelBorderColor=none;fontFamily=Comic Sans MS;enumerate=0;backgroundOutline=0;metaEdit=0;strokeWidth=1;strokeColor=light-dark(#B20000,#0000FF);sourcePerimeterSpacing=5;sketch=1;curveFitting=1;jiggle=2;edgeStyle=orthogonalEdgeStyle;curved=1;flowAnimation=0;fixDash=0;noJump=0;disableMultiStroke=0;" parent="1" source="sh2_wesA82XfefLjtwE--19" target="sh2_wesA82XfefLjtwE--36" edge="1">
          <mxGeometry relative="1" as="geometry" />
        </mxCell>
        <mxCell id="sh2_wesA82XfefLjtwE--52" value="" style="startArrow=none;endArrow=block;exitX=0.82;exitY=0;entryX=0.4;entryY=0;rounded=0;shadow=0;labelBackgroundColor=none;labelBorderColor=none;fontFamily=Comic Sans MS;enumerate=0;backgroundOutline=0;metaEdit=0;strokeWidth=1;strokeColor=light-dark(#B20000,#0000FF);sourcePerimeterSpacing=5;sketch=1;curveFitting=1;jiggle=2;edgeStyle=orthogonalEdgeStyle;curved=1;flowAnimation=0;fixDash=0;noJump=0;disableMultiStroke=0;" parent="1" source="sh2_wesA82XfefLjtwE--20" target="sh2_wesA82XfefLjtwE--16" edge="1">
          <mxGeometry relative="1" as="geometry" />
        </mxCell>
        <mxCell id="sh2_wesA82XfefLjtwE--53" value="" style="startArrow=none;endArrow=block;exitX=1;exitY=0.46;entryX=0;entryY=0.22;rounded=0;shadow=0;labelBackgroundColor=none;labelBorderColor=none;fontFamily=Comic Sans MS;enumerate=0;backgroundOutline=0;metaEdit=0;strokeWidth=1;strokeColor=light-dark(#B20000,#0000FF);sourcePerimeterSpacing=5;sketch=1;curveFitting=1;jiggle=2;edgeStyle=orthogonalEdgeStyle;curved=1;flowAnimation=0;fixDash=0;noJump=0;disableMultiStroke=0;" parent="1" source="sh2_wesA82XfefLjtwE--20" target="sh2_wesA82XfefLjtwE--24" edge="1">
          <mxGeometry relative="1" as="geometry" />
        </mxCell>
        <mxCell id="sh2_wesA82XfefLjtwE--54" value="" style="startArrow=none;endArrow=block;exitX=0;exitY=0.93;entryX=0.9;entryY=1;rounded=0;shadow=0;labelBackgroundColor=none;labelBorderColor=none;fontFamily=Comic Sans MS;enumerate=0;backgroundOutline=0;metaEdit=0;strokeWidth=1;strokeColor=light-dark(#B20000,#0000FF);sourcePerimeterSpacing=5;sketch=1;curveFitting=1;jiggle=2;edgeStyle=orthogonalEdgeStyle;curved=1;flowAnimation=0;fixDash=0;noJump=0;disableMultiStroke=0;" parent="1" source="sh2_wesA82XfefLjtwE--24" target="sh2_wesA82XfefLjtwE--20" edge="1">
          <mxGeometry relative="1" as="geometry" />
        </mxCell>
        <mxCell id="sh2_wesA82XfefLjtwE--55" value="" style="startArrow=none;endArrow=block;exitX=1;exitY=0.74;entryX=0.36;entryY=0;rounded=0;shadow=0;labelBackgroundColor=none;labelBorderColor=none;fontFamily=Comic Sans MS;enumerate=0;backgroundOutline=0;metaEdit=0;strokeWidth=1;strokeColor=light-dark(#B20000,#0000FF);sourcePerimeterSpacing=5;sketch=1;curveFitting=1;jiggle=2;edgeStyle=orthogonalEdgeStyle;curved=1;flowAnimation=0;fixDash=0;noJump=0;disableMultiStroke=0;" parent="1" source="sh2_wesA82XfefLjtwE--16" target="sh2_wesA82XfefLjtwE--25" edge="1">
          <mxGeometry relative="1" as="geometry" />
        </mxCell>
        <mxCell id="sh2_wesA82XfefLjtwE--56" value="" style="startArrow=none;endArrow=block;exitX=0.8;exitY=1;entryX=0;entryY=0.5;rounded=0;shadow=0;labelBackgroundColor=none;labelBorderColor=none;fontFamily=Comic Sans MS;enumerate=0;backgroundOutline=0;metaEdit=0;strokeWidth=1;strokeColor=light-dark(#B20000,#0000FF);sourcePerimeterSpacing=5;sketch=1;curveFitting=1;jiggle=2;edgeStyle=orthogonalEdgeStyle;curved=1;flowAnimation=0;fixDash=0;noJump=0;disableMultiStroke=0;" parent="1" source="sh2_wesA82XfefLjtwE--16" target="sh2_wesA82XfefLjtwE--26" edge="1">
          <mxGeometry relative="1" as="geometry" />
        </mxCell>
        <mxCell id="sh2_wesA82XfefLjtwE--57" value="" style="startArrow=none;endArrow=block;exitX=0.62;exitY=1;entryX=0.02;entryY=0;rounded=0;shadow=0;labelBackgroundColor=none;labelBorderColor=none;fontFamily=Comic Sans MS;enumerate=0;backgroundOutline=0;metaEdit=0;strokeWidth=1;strokeColor=light-dark(#B20000,#0000FF);sourcePerimeterSpacing=5;sketch=1;curveFitting=1;jiggle=2;edgeStyle=orthogonalEdgeStyle;curved=1;flowAnimation=0;fixDash=0;noJump=0;disableMultiStroke=0;" parent="1" source="sh2_wesA82XfefLjtwE--16" target="sh2_wesA82XfefLjtwE--27" edge="1">
          <mxGeometry relative="1" as="geometry" />
        </mxCell>
        <mxCell id="sh2_wesA82XfefLjtwE--58" value="" style="startArrow=none;endArrow=block;exitX=0.63;exitY=1;entryX=0;entryY=0.5;rounded=0;shadow=0;labelBackgroundColor=none;labelBorderColor=none;fontFamily=Comic Sans MS;enumerate=0;backgroundOutline=0;metaEdit=0;strokeWidth=1;strokeColor=light-dark(#B20000,#0000FF);sourcePerimeterSpacing=5;sketch=1;curveFitting=1;jiggle=2;edgeStyle=orthogonalEdgeStyle;curved=1;flowAnimation=0;fixDash=0;noJump=0;disableMultiStroke=0;" parent="1" source="sh2_wesA82XfefLjtwE--16" target="sh2_wesA82XfefLjtwE--28" edge="1">
          <mxGeometry relative="1" as="geometry" />
        </mxCell>
        <mxCell id="sh2_wesA82XfefLjtwE--59" value="" style="startArrow=none;endArrow=block;exitX=0.81;exitY=0;entryX=0;entryY=0;rounded=0;shadow=0;labelBackgroundColor=none;labelBorderColor=none;fontFamily=Comic Sans MS;enumerate=0;backgroundOutline=0;metaEdit=0;strokeWidth=1;strokeColor=light-dark(#B20000,#0000FF);sourcePerimeterSpacing=5;sketch=1;curveFitting=1;jiggle=2;edgeStyle=orthogonalEdgeStyle;curved=1;flowAnimation=0;fixDash=0;noJump=0;disableMultiStroke=0;" parent="1" source="sh2_wesA82XfefLjtwE--16" target="sh2_wesA82XfefLjtwE--29" edge="1">
          <mxGeometry relative="1" as="geometry" />
        </mxCell>
        <mxCell id="sh2_wesA82XfefLjtwE--60" value="" style="startArrow=none;endArrow=block;exitX=0.94;exitY=0;entryX=0.22;entryY=1;rounded=0;shadow=0;labelBackgroundColor=none;labelBorderColor=none;fontFamily=Comic Sans MS;enumerate=0;backgroundOutline=0;metaEdit=0;strokeWidth=1;strokeColor=light-dark(#B20000,#0000FF);sourcePerimeterSpacing=5;sketch=1;curveFitting=1;jiggle=2;edgeStyle=orthogonalEdgeStyle;curved=1;flowAnimation=0;fixDash=0;noJump=0;disableMultiStroke=0;" parent="1" source="sh2_wesA82XfefLjtwE--24" target="sh2_wesA82XfefLjtwE--25" edge="1">
          <mxGeometry relative="1" as="geometry" />
        </mxCell>
        <mxCell id="sh2_wesA82XfefLjtwE--61" value="" style="startArrow=none;endArrow=block;exitX=1;exitY=0.93;entryX=0.13;entryY=1;rounded=0;shadow=0;labelBackgroundColor=none;labelBorderColor=none;fontFamily=Comic Sans MS;enumerate=0;backgroundOutline=0;metaEdit=0;strokeWidth=1;strokeColor=light-dark(#B20000,#0000FF);sourcePerimeterSpacing=5;sketch=1;curveFitting=1;jiggle=2;edgeStyle=orthogonalEdgeStyle;curved=1;flowAnimation=0;fixDash=0;noJump=0;disableMultiStroke=0;" parent="1" source="sh2_wesA82XfefLjtwE--24" target="sh2_wesA82XfefLjtwE--27" edge="1">
          <mxGeometry relative="1" as="geometry" />
        </mxCell>
        <mxCell id="sh2_wesA82XfefLjtwE--62" value="" style="startArrow=none;endArrow=block;exitX=1;exitY=0.5;entryX=0.22;entryY=0;rounded=0;shadow=0;labelBackgroundColor=none;labelBorderColor=none;fontFamily=Comic Sans MS;enumerate=0;backgroundOutline=0;metaEdit=0;strokeWidth=1;strokeColor=light-dark(#B20000,#0000FF);sourcePerimeterSpacing=5;sketch=1;curveFitting=1;jiggle=2;edgeStyle=orthogonalEdgeStyle;curved=1;flowAnimation=0;fixDash=0;noJump=0;disableMultiStroke=0;" parent="1" source="sh2_wesA82XfefLjtwE--25" target="sh2_wesA82XfefLjtwE--32" edge="1">
          <mxGeometry relative="1" as="geometry" />
        </mxCell>
        <mxCell id="sh2_wesA82XfefLjtwE--63" value="" style="startArrow=none;endArrow=block;exitX=1;exitY=0.5;entryX=0.05;entryY=1;rounded=0;shadow=0;labelBackgroundColor=none;labelBorderColor=none;fontFamily=Comic Sans MS;enumerate=0;backgroundOutline=0;metaEdit=0;strokeWidth=1;strokeColor=light-dark(#B20000,#0000FF);sourcePerimeterSpacing=5;sketch=1;curveFitting=1;jiggle=2;edgeStyle=orthogonalEdgeStyle;curved=1;flowAnimation=0;fixDash=0;noJump=0;disableMultiStroke=0;" parent="1" source="sh2_wesA82XfefLjtwE--26" target="sh2_wesA82XfefLjtwE--32" edge="1">
          <mxGeometry relative="1" as="geometry" />
        </mxCell>
        <mxCell id="sh2_wesA82XfefLjtwE--64" value="" style="startArrow=none;endArrow=block;exitX=1;exitY=0.5;entryX=0.44;entryY=1;rounded=0;shadow=0;labelBackgroundColor=none;labelBorderColor=none;fontFamily=Comic Sans MS;enumerate=0;backgroundOutline=0;metaEdit=0;strokeWidth=1;strokeColor=light-dark(#B20000,#0000FF);sourcePerimeterSpacing=5;sketch=1;curveFitting=1;jiggle=2;edgeStyle=orthogonalEdgeStyle;curved=1;flowAnimation=0;fixDash=0;noJump=0;disableMultiStroke=0;" parent="1" source="sh2_wesA82XfefLjtwE--27" target="sh2_wesA82XfefLjtwE--32" edge="1">
          <mxGeometry relative="1" as="geometry" />
        </mxCell>
        <mxCell id="sh2_wesA82XfefLjtwE--65" value="" style="startArrow=none;endArrow=block;exitX=1;exitY=0.5;entryX=0.46;entryY=1;rounded=0;shadow=0;labelBackgroundColor=none;labelBorderColor=none;fontFamily=Comic Sans MS;enumerate=0;backgroundOutline=0;metaEdit=0;strokeWidth=1;strokeColor=light-dark(#B20000,#0000FF);sourcePerimeterSpacing=5;sketch=1;curveFitting=1;jiggle=2;edgeStyle=orthogonalEdgeStyle;curved=1;flowAnimation=0;fixDash=0;noJump=0;disableMultiStroke=0;" parent="1" source="sh2_wesA82XfefLjtwE--29" target="sh2_wesA82XfefLjtwE--38" edge="1">
          <mxGeometry relative="1" as="geometry" />
        </mxCell>
        <mxCell id="sh2_wesA82XfefLjtwE--66" value="" style="startArrow=none;endArrow=block;exitX=1;exitY=0.5;entryX=0;entryY=0.5;rounded=0;shadow=0;labelBackgroundColor=none;labelBorderColor=none;fontFamily=Comic Sans MS;enumerate=0;backgroundOutline=0;metaEdit=0;strokeWidth=1;strokeColor=light-dark(#B20000,#0000FF);sourcePerimeterSpacing=5;sketch=1;curveFitting=1;jiggle=2;edgeStyle=orthogonalEdgeStyle;curved=1;flowAnimation=0;fixDash=0;noJump=0;disableMultiStroke=0;" parent="1" source="sh2_wesA82XfefLjtwE--14" target="sh2_wesA82XfefLjtwE--16" edge="1">
          <mxGeometry relative="1" as="geometry" />
        </mxCell>
        <mxCell id="sh2_wesA82XfefLjtwE--67" value="" style="startArrow=none;endArrow=block;exitX=0.54;exitY=1;entryX=0.44;entryY=0;rounded=0;shadow=0;labelBackgroundColor=none;labelBorderColor=none;fontFamily=Comic Sans MS;enumerate=0;backgroundOutline=0;metaEdit=0;strokeWidth=1;strokeColor=light-dark(#B20000,#0000FF);sourcePerimeterSpacing=5;sketch=1;curveFitting=1;jiggle=2;edgeStyle=orthogonalEdgeStyle;curved=1;flowAnimation=0;fixDash=0;noJump=0;disableMultiStroke=0;" parent="1" source="sh2_wesA82XfefLjtwE--33" target="sh2_wesA82XfefLjtwE--7" edge="1">
          <mxGeometry relative="1" as="geometry" />
        </mxCell>
        <mxCell id="sh2_wesA82XfefLjtwE--68" value="" style="startArrow=none;endArrow=block;exitX=0.54;exitY=1;entryX=0.48;entryY=0;rounded=0;shadow=0;labelBackgroundColor=none;labelBorderColor=none;fontFamily=Comic Sans MS;enumerate=0;backgroundOutline=0;metaEdit=0;strokeWidth=1;strokeColor=light-dark(#B20000,#0000FF);sourcePerimeterSpacing=5;sketch=1;curveFitting=1;jiggle=2;edgeStyle=orthogonalEdgeStyle;curved=1;flowAnimation=0;fixDash=0;noJump=0;disableMultiStroke=0;" parent="1" source="sh2_wesA82XfefLjtwE--33" target="sh2_wesA82XfefLjtwE--20" edge="1">
          <mxGeometry relative="1" as="geometry" />
        </mxCell>
        <mxCell id="sh2_wesA82XfefLjtwE--69" value="" style="startArrow=none;endArrow=block;exitX=0.7;exitY=0;entryX=0.49;entryY=0;rounded=0;shadow=0;labelBackgroundColor=none;labelBorderColor=none;fontFamily=Comic Sans MS;enumerate=0;backgroundOutline=0;metaEdit=0;strokeWidth=1;strokeColor=light-dark(#B20000,#0000FF);sourcePerimeterSpacing=5;sketch=1;curveFitting=1;jiggle=2;edgeStyle=orthogonalEdgeStyle;curved=1;flowAnimation=0;fixDash=0;noJump=0;disableMultiStroke=0;" parent="1" source="sh2_wesA82XfefLjtwE--33" target="sh2_wesA82XfefLjtwE--25" edge="1">
          <mxGeometry relative="1" as="geometry" />
        </mxCell>
        <mxCell id="sh2_wesA82XfefLjtwE--70" value="" style="startArrow=none;endArrow=block;exitX=0.8;exitY=0;entryX=0.49;entryY=0;rounded=0;shadow=0;labelBackgroundColor=none;labelBorderColor=none;fontFamily=Comic Sans MS;enumerate=0;backgroundOutline=0;metaEdit=0;strokeWidth=1;strokeColor=light-dark(#B20000,#0000FF);sourcePerimeterSpacing=5;sketch=1;curveFitting=1;jiggle=2;edgeStyle=orthogonalEdgeStyle;curved=1;flowAnimation=0;fixDash=0;noJump=0;disableMultiStroke=0;" parent="1" source="sh2_wesA82XfefLjtwE--33" target="sh2_wesA82XfefLjtwE--26" edge="1">
          <mxGeometry relative="1" as="geometry" />
        </mxCell>
        <mxCell id="sh2_wesA82XfefLjtwE--71" value="" style="startArrow=none;endArrow=block;exitX=0.73;exitY=1;entryX=0.49;entryY=0;rounded=0;shadow=0;labelBackgroundColor=none;labelBorderColor=none;fontFamily=Comic Sans MS;enumerate=0;backgroundOutline=0;metaEdit=0;strokeWidth=1;strokeColor=light-dark(#B20000,#0000FF);sourcePerimeterSpacing=5;sketch=1;curveFitting=1;jiggle=2;edgeStyle=orthogonalEdgeStyle;curved=1;flowAnimation=0;fixDash=0;noJump=0;disableMultiStroke=0;" parent="1" source="sh2_wesA82XfefLjtwE--33" target="sh2_wesA82XfefLjtwE--27" edge="1">
          <mxGeometry relative="1" as="geometry" />
        </mxCell>
        <mxCell id="sh2_wesA82XfefLjtwE--72" value="" style="startArrow=none;endArrow=block;exitX=1;exitY=0.08;entryX=0.49;entryY=0;rounded=0;shadow=0;labelBackgroundColor=none;labelBorderColor=none;fontFamily=Comic Sans MS;enumerate=0;backgroundOutline=0;metaEdit=0;strokeWidth=1;strokeColor=light-dark(#B20000,#0000FF);sourcePerimeterSpacing=5;sketch=1;curveFitting=1;jiggle=2;edgeStyle=orthogonalEdgeStyle;curved=1;flowAnimation=0;fixDash=0;noJump=0;disableMultiStroke=0;" parent="1" source="sh2_wesA82XfefLjtwE--33" target="sh2_wesA82XfefLjtwE--28" edge="1">
          <mxGeometry relative="1" as="geometry" />
        </mxCell>
        <mxCell id="sh2_wesA82XfefLjtwE--73" value="" style="startArrow=none;endArrow=block;exitX=0.65;exitY=0;entryX=0.48;entryY=0;rounded=0;shadow=0;labelBackgroundColor=none;labelBorderColor=none;fontFamily=Comic Sans MS;enumerate=0;backgroundOutline=0;metaEdit=0;strokeWidth=1;strokeColor=light-dark(#B20000,#0000FF);sourcePerimeterSpacing=5;sketch=1;curveFitting=1;jiggle=2;edgeStyle=orthogonalEdgeStyle;curved=1;flowAnimation=0;fixDash=0;noJump=0;disableMultiStroke=0;" parent="1" source="sh2_wesA82XfefLjtwE--33" target="sh2_wesA82XfefLjtwE--29" edge="1">
          <mxGeometry relative="1" as="geometry" />
        </mxCell>
        <mxCell id="sh2_wesA82XfefLjtwE--74" value="" style="startArrow=none;endArrow=block;exitX=0.53;exitY=1;entryX=0.44;entryY=0;rounded=0;shadow=0;labelBackgroundColor=none;labelBorderColor=none;fontFamily=Comic Sans MS;enumerate=0;backgroundOutline=0;metaEdit=0;strokeWidth=1;strokeColor=light-dark(#B20000,#0000FF);sourcePerimeterSpacing=5;sketch=1;curveFitting=1;jiggle=2;edgeStyle=orthogonalEdgeStyle;curved=1;flowAnimation=0;fixDash=0;noJump=0;disableMultiStroke=0;" parent="1" source="sh2_wesA82XfefLjtwE--34" target="sh2_wesA82XfefLjtwE--7" edge="1">
          <mxGeometry relative="1" as="geometry" />
        </mxCell>
        <mxCell id="sh2_wesA82XfefLjtwE--75" value="" style="startArrow=none;endArrow=block;exitX=0.53;exitY=1;entryX=0.48;entryY=0;rounded=0;shadow=0;labelBackgroundColor=none;labelBorderColor=none;fontFamily=Comic Sans MS;enumerate=0;backgroundOutline=0;metaEdit=0;strokeWidth=1;strokeColor=light-dark(#B20000,#0000FF);sourcePerimeterSpacing=5;sketch=1;curveFitting=1;jiggle=2;edgeStyle=orthogonalEdgeStyle;curved=1;flowAnimation=0;fixDash=0;noJump=0;disableMultiStroke=0;" parent="1" source="sh2_wesA82XfefLjtwE--34" target="sh2_wesA82XfefLjtwE--20" edge="1">
          <mxGeometry relative="1" as="geometry" />
        </mxCell>
        <mxCell id="sh2_wesA82XfefLjtwE--76" value="" style="startArrow=none;endArrow=block;exitX=0.58;exitY=0;entryX=0.49;entryY=0;rounded=0;shadow=0;labelBackgroundColor=none;labelBorderColor=none;fontFamily=Comic Sans MS;enumerate=0;backgroundOutline=0;metaEdit=0;strokeWidth=1;strokeColor=light-dark(#B20000,#0000FF);sourcePerimeterSpacing=5;sketch=1;curveFitting=1;jiggle=2;edgeStyle=orthogonalEdgeStyle;curved=1;flowAnimation=0;fixDash=0;noJump=0;disableMultiStroke=0;" parent="1" source="sh2_wesA82XfefLjtwE--34" target="sh2_wesA82XfefLjtwE--25" edge="1">
          <mxGeometry relative="1" as="geometry" />
        </mxCell>
        <mxCell id="sh2_wesA82XfefLjtwE--77" value="" style="startArrow=none;endArrow=block;exitX=0.6;exitY=0;entryX=0.48;entryY=0;rounded=0;shadow=0;labelBackgroundColor=none;labelBorderColor=none;fontFamily=Comic Sans MS;enumerate=0;backgroundOutline=0;metaEdit=0;strokeWidth=1;strokeColor=light-dark(#B20000,#0000FF);sourcePerimeterSpacing=5;sketch=1;curveFitting=1;jiggle=2;edgeStyle=orthogonalEdgeStyle;curved=1;flowAnimation=0;fixDash=0;noJump=0;disableMultiStroke=0;" parent="1" source="sh2_wesA82XfefLjtwE--34" target="sh2_wesA82XfefLjtwE--26" edge="1">
          <mxGeometry relative="1" as="geometry" />
        </mxCell>
        <mxCell id="sh2_wesA82XfefLjtwE--78" value="" style="startArrow=none;endArrow=block;exitX=1;exitY=0.81;entryX=0.49;entryY=0;rounded=0;shadow=0;labelBackgroundColor=none;labelBorderColor=none;fontFamily=Comic Sans MS;enumerate=0;backgroundOutline=0;metaEdit=0;strokeWidth=1;strokeColor=light-dark(#B20000,#0000FF);sourcePerimeterSpacing=5;sketch=1;curveFitting=1;jiggle=2;edgeStyle=orthogonalEdgeStyle;curved=1;flowAnimation=0;fixDash=0;noJump=0;disableMultiStroke=0;" parent="1" source="sh2_wesA82XfefLjtwE--34" target="sh2_wesA82XfefLjtwE--27" edge="1">
          <mxGeometry relative="1" as="geometry" />
        </mxCell>
        <mxCell id="sh2_wesA82XfefLjtwE--79" value="" style="startArrow=none;endArrow=block;exitX=0.89;exitY=0;entryX=0.49;entryY=0;rounded=0;shadow=0;labelBackgroundColor=none;labelBorderColor=none;fontFamily=Comic Sans MS;enumerate=0;backgroundOutline=0;metaEdit=0;strokeWidth=1;strokeColor=light-dark(#B20000,#0000FF);sourcePerimeterSpacing=5;sketch=1;curveFitting=1;jiggle=2;edgeStyle=orthogonalEdgeStyle;curved=1;flowAnimation=0;fixDash=0;noJump=0;disableMultiStroke=0;" parent="1" source="sh2_wesA82XfefLjtwE--34" target="sh2_wesA82XfefLjtwE--28" edge="1">
          <mxGeometry relative="1" as="geometry" />
        </mxCell>
        <mxCell id="sh2_wesA82XfefLjtwE--80" value="" style="startArrow=none;endArrow=block;exitX=0.56;exitY=0;entryX=0.48;entryY=0;rounded=0;shadow=0;labelBackgroundColor=none;labelBorderColor=none;fontFamily=Comic Sans MS;enumerate=0;backgroundOutline=0;metaEdit=0;strokeWidth=1;strokeColor=light-dark(#B20000,#0000FF);sourcePerimeterSpacing=5;sketch=1;curveFitting=1;jiggle=2;edgeStyle=orthogonalEdgeStyle;curved=1;flowAnimation=0;fixDash=0;noJump=0;disableMultiStroke=0;" parent="1" source="sh2_wesA82XfefLjtwE--34" target="sh2_wesA82XfefLjtwE--29" edge="1">
          <mxGeometry relative="1" as="geometry" />
        </mxCell>
        <mxCell id="sh2_wesA82XfefLjtwE--81" value="" style="startArrow=none;endArrow=block;exitX=0.67;exitY=1;entryX=0;entryY=0.51;rounded=0;shadow=0;labelBackgroundColor=none;labelBorderColor=none;fontFamily=Comic Sans MS;enumerate=0;backgroundOutline=0;metaEdit=0;strokeWidth=1;strokeColor=light-dark(#B20000,#0000FF);sourcePerimeterSpacing=5;sketch=1;curveFitting=1;jiggle=2;edgeStyle=orthogonalEdgeStyle;curved=1;flowAnimation=0;fixDash=0;noJump=0;disableMultiStroke=0;" parent="1" source="sh2_wesA82XfefLjtwE--35" target="sh2_wesA82XfefLjtwE--36" edge="1">
          <mxGeometry relative="1" as="geometry" />
        </mxCell>
        <mxCell id="sh2_wesA82XfefLjtwE--82" value="" style="startArrow=none;endArrow=block;exitX=0.67;exitY=0;entryX=0.49;entryY=0;rounded=0;shadow=0;labelBackgroundColor=none;labelBorderColor=none;fontFamily=Comic Sans MS;enumerate=0;backgroundOutline=0;metaEdit=0;strokeWidth=1;strokeColor=light-dark(#B20000,#0000FF);sourcePerimeterSpacing=5;sketch=1;curveFitting=1;jiggle=2;edgeStyle=orthogonalEdgeStyle;curved=1;flowAnimation=0;fixDash=0;noJump=0;disableMultiStroke=0;" parent="1" source="sh2_wesA82XfefLjtwE--35" target="sh2_wesA82XfefLjtwE--24" edge="1">
          <mxGeometry relative="1" as="geometry" />
        </mxCell>
        <mxCell id="sh2_wesA82XfefLjtwE--83" value="" style="startArrow=none;endArrow=block;exitX=1;exitY=0.5;entryX=0.48;entryY=0;rounded=0;shadow=0;labelBackgroundColor=none;labelBorderColor=none;fontFamily=Comic Sans MS;enumerate=0;backgroundOutline=0;metaEdit=0;strokeWidth=1;strokeColor=light-dark(#B20000,#0000FF);sourcePerimeterSpacing=5;sketch=1;curveFitting=1;jiggle=2;edgeStyle=orthogonalEdgeStyle;curved=1;flowAnimation=0;fixDash=0;noJump=0;disableMultiStroke=0;" parent="1" source="sh2_wesA82XfefLjtwE--40" target="sh2_wesA82XfefLjtwE--14" edge="1">
          <mxGeometry relative="1" as="geometry" />
        </mxCell>
        <mxCell id="sh2_wesA82XfefLjtwE--84" value="" style="startArrow=none;endArrow=block;exitX=1;exitY=0.5;entryX=0.48;entryY=0;rounded=0;shadow=0;labelBackgroundColor=none;labelBorderColor=none;fontFamily=Comic Sans MS;enumerate=0;backgroundOutline=0;metaEdit=0;strokeWidth=1;strokeColor=light-dark(#B20000,#0000FF);sourcePerimeterSpacing=5;sketch=1;curveFitting=1;jiggle=2;edgeStyle=orthogonalEdgeStyle;curved=1;flowAnimation=0;fixDash=0;noJump=0;disableMultiStroke=0;" parent="1" source="sh2_wesA82XfefLjtwE--41" target="sh2_wesA82XfefLjtwE--14" edge="1">
          <mxGeometry relative="1" as="geometry" />
        </mxCell>
      </root>
    </mxGraphModel>
  </diagram>
  <diagram id="tkB6OCmFyKro2fdkNh8M" name="Page-2">
    <mxGraphModel dx="2066" dy="1188" grid="1" gridSize="10" guides="1" tooltips="1" connect="1" arrows="1" fold="1" page="1" pageScale="1" pageWidth="850" pageHeight="1100" math="0" shadow="0">
      <root>
        <mxCell id="0" />
        <mxCell id="1" parent="0" />
        <mxCell id="sFV-OwCciSmLxLvp4_ww-1" value="Optimization and edge" style="whiteSpace=wrap;strokeWidth=2;fillColor=#fad7ac;strokeColor=#b46504;" vertex="1" parent="1">
          <mxGeometry x="273" y="20" width="619" height="356" as="geometry" />
        </mxCell>
        <mxCell id="sFV-OwCciSmLxLvp4_ww-2" value="Security and networking" style="whiteSpace=wrap;strokeWidth=2;fillColor=#fad9d5;strokeColor=#ae4132;" vertex="1" parent="1">
          <mxGeometry x="273" y="396" width="619" height="1004" as="geometry" />
        </mxCell>
        <mxCell id="sFV-OwCciSmLxLvp4_ww-3" value="Governance" style="whiteSpace=wrap;strokeWidth=2;fillColor=#b0e3e6;strokeColor=#0e8088;" vertex="1" parent="1">
          <mxGeometry x="273" y="1420" width="619" height="332" as="geometry" />
        </mxCell>
        <mxCell id="sFV-OwCciSmLxLvp4_ww-4" value="Monitoring and explainability" style="whiteSpace=wrap;strokeWidth=2;fillColor=#b1ddf0;strokeColor=#10739e;" vertex="1" parent="1">
          <mxGeometry x="1367" y="1328" width="1292" height="550" as="geometry" />
        </mxCell>
        <mxCell id="sFV-OwCciSmLxLvp4_ww-5" value="Inference and hosting" style="whiteSpace=wrap;strokeWidth=2;fillColor=#fad9d5;strokeColor=#ae4132;" vertex="1" parent="1">
          <mxGeometry x="2042" y="3275" width="617" height="1142" as="geometry" />
        </mxCell>
        <mxCell id="sFV-OwCciSmLxLvp4_ww-6" value="Orchestration and MLOps" style="whiteSpace=wrap;strokeWidth=2;fillColor=#b1ddf0;strokeColor=#10739e;" vertex="1" parent="1">
          <mxGeometry x="942" y="3397" width="1051" height="372" as="geometry" />
        </mxCell>
        <mxCell id="sFV-OwCciSmLxLvp4_ww-7" value="Training" style="whiteSpace=wrap;strokeWidth=2;fillColor=#bac8d3;strokeColor=#23445d;" vertex="1" parent="1">
          <mxGeometry x="1367" y="1898" width="985" height="1079" as="geometry" />
        </mxCell>
        <mxCell id="sFV-OwCciSmLxLvp4_ww-8" value="Data prep and labeling" style="whiteSpace=wrap;strokeWidth=2;fillColor=#d0cee2;strokeColor=#56517e;" vertex="1" parent="1">
          <mxGeometry x="273" y="2264" width="979" height="682" as="geometry" />
        </mxCell>
        <mxCell id="sFV-OwCciSmLxLvp4_ww-9" value="Studio and IDEs" style="whiteSpace=wrap;strokeWidth=2;fillColor=#fad7ac;strokeColor=#b46504;" vertex="1" parent="1">
          <mxGeometry x="582" y="3789" width="1096" height="612" as="geometry" />
        </mxCell>
        <mxCell id="sFV-OwCciSmLxLvp4_ww-10" value="SageMaker Platform" style="whiteSpace=wrap;strokeWidth=2;" vertex="1" parent="1">
          <mxGeometry x="20" y="1819" width="203" height="54" as="geometry" />
        </mxCell>
        <mxCell id="sFV-OwCciSmLxLvp4_ww-11" value="Studio IDE" style="whiteSpace=wrap;strokeWidth=2;" vertex="1" parent="1">
          <mxGeometry x="670" y="3938" width="133" height="54" as="geometry" />
        </mxCell>
        <mxCell id="sFV-OwCciSmLxLvp4_ww-12" value="MLOps" style="whiteSpace=wrap;strokeWidth=2;" vertex="1" parent="1">
          <mxGeometry x="1044" y="3504" width="106" height="54" as="geometry" />
        </mxCell>
        <mxCell id="sFV-OwCciSmLxLvp4_ww-13" value="Data prep and labeling" style="whiteSpace=wrap;strokeWidth=2;" vertex="1" parent="1">
          <mxGeometry x="303" y="2575" width="223" height="54" as="geometry" />
        </mxCell>
        <mxCell id="sFV-OwCciSmLxLvp4_ww-14" value="Training" style="whiteSpace=wrap;strokeWidth=2;" vertex="1" parent="1">
          <mxGeometry x="1464" y="2482" width="117" height="54" as="geometry" />
        </mxCell>
        <mxCell id="sFV-OwCciSmLxLvp4_ww-15" value="Inference and hosting" style="whiteSpace=wrap;strokeWidth=2;" vertex="1" parent="1">
          <mxGeometry x="2089" y="3726" width="215" height="54" as="geometry" />
        </mxCell>
        <mxCell id="sFV-OwCciSmLxLvp4_ww-16" value="Monitoring and explainability" style="whiteSpace=wrap;strokeWidth=2;" vertex="1" parent="1">
          <mxGeometry x="1392" y="1733" width="260" height="78" as="geometry" />
        </mxCell>
        <mxCell id="sFV-OwCciSmLxLvp4_ww-17" value="Governance" style="whiteSpace=wrap;strokeWidth=2;" vertex="1" parent="1">
          <mxGeometry x="342" y="1559" width="145" height="54" as="geometry" />
        </mxCell>
        <mxCell id="sFV-OwCciSmLxLvp4_ww-18" value="Security and networking" style="whiteSpace=wrap;strokeWidth=2;" vertex="1" parent="1">
          <mxGeometry x="298" y="865" width="234" height="54" as="geometry" />
        </mxCell>
        <mxCell id="sFV-OwCciSmLxLvp4_ww-19" value="Optimization and edge" style="whiteSpace=wrap;strokeWidth=2;" vertex="1" parent="1">
          <mxGeometry x="303" y="171" width="223" height="54" as="geometry" />
        </mxCell>
        <mxCell id="sFV-OwCciSmLxLvp4_ww-20" value="Domain and user profiles" style="whiteSpace=wrap;strokeWidth=2;" vertex="1" parent="1">
          <mxGeometry x="977" y="3834" width="238" height="54" as="geometry" />
        </mxCell>
        <mxCell id="sFV-OwCciSmLxLvp4_ww-21" value="Private and shared spaces" style="whiteSpace=wrap;strokeWidth=2;" vertex="1" parent="1">
          <mxGeometry x="1400" y="3834" width="245" height="54" as="geometry" />
        </mxCell>
        <mxCell id="sFV-OwCciSmLxLvp4_ww-22" value="JupyterLab notebooks" style="whiteSpace=wrap;strokeWidth=2;" vertex="1" parent="1">
          <mxGeometry x="988" y="3938" width="218" height="54" as="geometry" />
        </mxCell>
        <mxCell id="sFV-OwCciSmLxLvp4_ww-23" value="RStudio IDE" style="whiteSpace=wrap;strokeWidth=2;" vertex="1" parent="1">
          <mxGeometry x="1026" y="4042" width="142" height="54" as="geometry" />
        </mxCell>
        <mxCell id="sFV-OwCciSmLxLvp4_ww-24" value="Code editor" style="whiteSpace=wrap;strokeWidth=2;" vertex="1" parent="1">
          <mxGeometry x="1025" y="4146" width="144" height="54" as="geometry" />
        </mxCell>
        <mxCell id="sFV-OwCciSmLxLvp4_ww-25" value="JumpStart model hub" style="whiteSpace=wrap;strokeWidth=2;" vertex="1" parent="1">
          <mxGeometry x="1415" y="4312" width="214" height="54" as="geometry" />
        </mxCell>
        <mxCell id="sFV-OwCciSmLxLvp4_ww-26" value="Canvas no code" style="whiteSpace=wrap;strokeWidth=2;" vertex="1" parent="1">
          <mxGeometry x="1437" y="4208" width="171" height="54" as="geometry" />
        </mxCell>
        <mxCell id="sFV-OwCciSmLxLvp4_ww-27" value="Data Wrangler" style="whiteSpace=wrap;strokeWidth=2;" vertex="1" parent="1">
          <mxGeometry x="656" y="2756" width="162" height="54" as="geometry" />
        </mxCell>
        <mxCell id="sFV-OwCciSmLxLvp4_ww-28" value="Ground Truth" style="whiteSpace=wrap;strokeWidth=2;" vertex="1" parent="1">
          <mxGeometry x="659" y="2340" width="154" height="54" as="geometry" />
        </mxCell>
        <mxCell id="sFV-OwCciSmLxLvp4_ww-29" value="Ground Truth Plus" style="whiteSpace=wrap;strokeWidth=2;" vertex="1" parent="1">
          <mxGeometry x="643" y="2444" width="188" height="54" as="geometry" />
        </mxCell>
        <mxCell id="sFV-OwCciSmLxLvp4_ww-30" value="Processing jobs" style="whiteSpace=wrap;strokeWidth=2;" vertex="1" parent="1">
          <mxGeometry x="1012" y="2517" width="169" height="54" as="geometry" />
        </mxCell>
        <mxCell id="sFV-OwCciSmLxLvp4_ww-31" value="Geospatial capabilities" style="whiteSpace=wrap;strokeWidth=2;" vertex="1" parent="1">
          <mxGeometry x="625" y="2548" width="223" height="54" as="geometry" />
        </mxCell>
        <mxCell id="sFV-OwCciSmLxLvp4_ww-32" value="Feature Store online and offline" style="whiteSpace=wrap;strokeWidth=2;" vertex="1" parent="1">
          <mxGeometry x="967" y="2833" width="260" height="78" as="geometry" />
        </mxCell>
        <mxCell id="sFV-OwCciSmLxLvp4_ww-33" value="Clarify pre training analysis" style="whiteSpace=wrap;strokeWidth=2;" vertex="1" parent="1">
          <mxGeometry x="608" y="2652" width="257" height="54" as="geometry" />
        </mxCell>
        <mxCell id="sFV-OwCciSmLxLvp4_ww-34" value="Built in algorithms" style="whiteSpace=wrap;strokeWidth=2;" vertex="1" parent="1">
          <mxGeometry x="1751" y="1933" width="192" height="54" as="geometry" />
        </mxCell>
        <mxCell id="sFV-OwCciSmLxLvp4_ww-35" value="Script mode SDK" style="whiteSpace=wrap;strokeWidth=2;" vertex="1" parent="1">
          <mxGeometry x="1758" y="2037" width="178" height="54" as="geometry" />
        </mxCell>
        <mxCell id="sFV-OwCciSmLxLvp4_ww-36" value="Bring your own container" style="whiteSpace=wrap;strokeWidth=2;" vertex="1" parent="1">
          <mxGeometry x="1727" y="2141" width="240" height="54" as="geometry" />
        </mxCell>
        <mxCell id="sFV-OwCciSmLxLvp4_ww-37" value="Distributed training" style="whiteSpace=wrap;strokeWidth=2;" vertex="1" parent="1">
          <mxGeometry x="1747" y="2245" width="200" height="54" as="geometry" />
        </mxCell>
        <mxCell id="sFV-OwCciSmLxLvp4_ww-38" value="Data parallel" style="whiteSpace=wrap;strokeWidth=2;" vertex="1" parent="1">
          <mxGeometry x="2121" y="2089" width="153" height="54" as="geometry" />
        </mxCell>
        <mxCell id="sFV-OwCciSmLxLvp4_ww-39" value="Model parallel" style="whiteSpace=wrap;strokeWidth=2;" vertex="1" parent="1">
          <mxGeometry x="2116" y="2523" width="162" height="54" as="geometry" />
        </mxCell>
        <mxCell id="sFV-OwCciSmLxLvp4_ww-40" value="Training compiler" style="whiteSpace=wrap;strokeWidth=2;" vertex="1" parent="1">
          <mxGeometry x="1755" y="2349" width="185" height="54" as="geometry" />
        </mxCell>
        <mxCell id="sFV-OwCciSmLxLvp4_ww-41" value="Automatic model tuning HPO" style="whiteSpace=wrap;strokeWidth=2;" vertex="1" parent="1">
          <mxGeometry x="2067" y="2864" width="260" height="78" as="geometry" />
        </mxCell>
        <mxCell id="sFV-OwCciSmLxLvp4_ww-42" value="Managed spot training" style="whiteSpace=wrap;strokeWidth=2;" vertex="1" parent="1">
          <mxGeometry x="1738" y="2596" width="218" height="54" as="geometry" />
        </mxCell>
        <mxCell id="sFV-OwCciSmLxLvp4_ww-43" value="Debugger tensors rules" style="whiteSpace=wrap;strokeWidth=2;" vertex="1" parent="1">
          <mxGeometry x="1735" y="2700" width="223" height="54" as="geometry" />
        </mxCell>
        <mxCell id="sFV-OwCciSmLxLvp4_ww-44" value="HyperPod clusters" style="whiteSpace=wrap;strokeWidth=2;" vertex="1" parent="1">
          <mxGeometry x="1753" y="2804" width="188" height="54" as="geometry" />
        </mxCell>
        <mxCell id="sFV-OwCciSmLxLvp4_ww-45" value="Pipelines DAG" style="whiteSpace=wrap;strokeWidth=2;" vertex="1" parent="1">
          <mxGeometry x="1768" y="3494" width="159" height="54" as="geometry" />
        </mxCell>
        <mxCell id="sFV-OwCciSmLxLvp4_ww-46" value="Projects templates" style="whiteSpace=wrap;strokeWidth=2;" vertex="1" parent="1">
          <mxGeometry x="1425" y="3432" width="195" height="54" as="geometry" />
        </mxCell>
        <mxCell id="sFV-OwCciSmLxLvp4_ww-47" value="Model registry" style="whiteSpace=wrap;strokeWidth=2;" vertex="1" parent="1">
          <mxGeometry x="1766" y="3618" width="162" height="54" as="geometry" />
        </mxCell>
        <mxCell id="sFV-OwCciSmLxLvp4_ww-48" value="Experiments and lineage" style="whiteSpace=wrap;strokeWidth=2;" vertex="1" parent="1">
          <mxGeometry x="1404" y="3680" width="236" height="54" as="geometry" />
        </mxCell>
        <mxCell id="sFV-OwCciSmLxLvp4_ww-49" value="Model cards" style="whiteSpace=wrap;strokeWidth=2;" vertex="1" parent="1">
          <mxGeometry x="1450" y="3556" width="145" height="54" as="geometry" />
        </mxCell>
        <mxCell id="sFV-OwCciSmLxLvp4_ww-50" value="Real time endpoints" style="whiteSpace=wrap;strokeWidth=2;" vertex="1" parent="1">
          <mxGeometry x="2417" y="3310" width="203" height="54" as="geometry" />
        </mxCell>
        <mxCell id="sFV-OwCciSmLxLvp4_ww-51" value="Serverless inference" style="whiteSpace=wrap;strokeWidth=2;" vertex="1" parent="1">
          <mxGeometry x="2416" y="3414" width="205" height="54" as="geometry" />
        </mxCell>
        <mxCell id="sFV-OwCciSmLxLvp4_ww-52" value="Async inference" style="whiteSpace=wrap;strokeWidth=2;" vertex="1" parent="1">
          <mxGeometry x="2432" y="3518" width="174" height="54" as="geometry" />
        </mxCell>
        <mxCell id="sFV-OwCciSmLxLvp4_ww-53" value="Batch transform" style="whiteSpace=wrap;strokeWidth=2;" vertex="1" parent="1">
          <mxGeometry x="2431" y="3622" width="175" height="54" as="geometry" />
        </mxCell>
        <mxCell id="sFV-OwCciSmLxLvp4_ww-54" value="Multi model endpoints" style="whiteSpace=wrap;strokeWidth=2;" vertex="1" parent="1">
          <mxGeometry x="2409" y="3726" width="220" height="54" as="geometry" />
        </mxCell>
        <mxCell id="sFV-OwCciSmLxLvp4_ww-55" value="Inference pipelines" style="whiteSpace=wrap;strokeWidth=2;" vertex="1" parent="1">
          <mxGeometry x="2420" y="3901" width="197" height="54" as="geometry" />
        </mxCell>
        <mxCell id="sFV-OwCciSmLxLvp4_ww-56" value="Production variants AB" style="whiteSpace=wrap;strokeWidth=2;" vertex="1" parent="1">
          <mxGeometry x="2407" y="4005" width="222" height="54" as="geometry" />
        </mxCell>
        <mxCell id="sFV-OwCciSmLxLvp4_ww-57" value="Shadow tests" style="whiteSpace=wrap;strokeWidth=2;" vertex="1" parent="1">
          <mxGeometry x="2442" y="4109" width="153" height="54" as="geometry" />
        </mxCell>
        <mxCell id="sFV-OwCciSmLxLvp4_ww-58" value="Inference recommender" style="whiteSpace=wrap;strokeWidth=2;" vertex="1" parent="1">
          <mxGeometry x="2402" y="4213" width="232" height="54" as="geometry" />
        </mxCell>
        <mxCell id="sFV-OwCciSmLxLvp4_ww-59" value="LMI DJL serving" style="whiteSpace=wrap;strokeWidth=2;" vertex="1" parent="1">
          <mxGeometry x="2434" y="4328" width="170" height="54" as="geometry" />
        </mxCell>
        <mxCell id="sFV-OwCciSmLxLvp4_ww-60" value="Data capture" style="whiteSpace=wrap;strokeWidth=2;" vertex="1" parent="1">
          <mxGeometry x="2442" y="1789" width="153" height="54" as="geometry" />
        </mxCell>
        <mxCell id="sFV-OwCciSmLxLvp4_ww-61" value="Model monitor" style="whiteSpace=wrap;strokeWidth=2;" vertex="1" parent="1">
          <mxGeometry x="1765" y="1519" width="163" height="54" as="geometry" />
        </mxCell>
        <mxCell id="sFV-OwCciSmLxLvp4_ww-62" value="Data quality" style="whiteSpace=wrap;strokeWidth=2;" vertex="1" parent="1">
          <mxGeometry x="2123" y="1363" width="147" height="54" as="geometry" />
        </mxCell>
        <mxCell id="sFV-OwCciSmLxLvp4_ww-63" value="Model quality" style="whiteSpace=wrap;strokeWidth=2;" vertex="1" parent="1">
          <mxGeometry x="2119" y="1467" width="157" height="54" as="geometry" />
        </mxCell>
        <mxCell id="sFV-OwCciSmLxLvp4_ww-64" value="Bias drift" style="whiteSpace=wrap;strokeWidth=2;" vertex="1" parent="1">
          <mxGeometry x="2135" y="1571" width="125" height="54" as="geometry" />
        </mxCell>
        <mxCell id="sFV-OwCciSmLxLvp4_ww-65" value="Explainability drift" style="whiteSpace=wrap;strokeWidth=2;" vertex="1" parent="1">
          <mxGeometry x="2100" y="1675" width="194" height="54" as="geometry" />
        </mxCell>
        <mxCell id="sFV-OwCciSmLxLvp4_ww-66" value="Clarify explainability" style="whiteSpace=wrap;strokeWidth=2;" vertex="1" parent="1">
          <mxGeometry x="1742" y="1623" width="210" height="54" as="geometry" />
        </mxCell>
        <mxCell id="sFV-OwCciSmLxLvp4_ww-67" value="CloudWatch metrics" style="whiteSpace=wrap;strokeWidth=2;" vertex="1" parent="1">
          <mxGeometry x="1746" y="1727" width="203" height="54" as="geometry" />
        </mxCell>
        <mxCell id="sFV-OwCciSmLxLvp4_ww-68" value="Model registry approvals" style="whiteSpace=wrap;strokeWidth=2;" vertex="1" parent="1">
          <mxGeometry x="619" y="1455" width="235" height="54" as="geometry" />
        </mxCell>
        <mxCell id="sFV-OwCciSmLxLvp4_ww-69" value="Model cards pdf export" style="whiteSpace=wrap;strokeWidth=2;" vertex="1" parent="1">
          <mxGeometry x="624" y="1559" width="225" height="54" as="geometry" />
        </mxCell>
        <mxCell id="sFV-OwCciSmLxLvp4_ww-70" value="Lineage tracking" style="whiteSpace=wrap;strokeWidth=2;" vertex="1" parent="1">
          <mxGeometry x="647" y="1663" width="178" height="54" as="geometry" />
        </mxCell>
        <mxCell id="sFV-OwCciSmLxLvp4_ww-71" value="IAM roles and least privilege" style="whiteSpace=wrap;strokeWidth=2;" vertex="1" parent="1">
          <mxGeometry x="607" y="431" width="260" height="78" as="geometry" />
        </mxCell>
        <mxCell id="sFV-OwCciSmLxLvp4_ww-72" value="KMS encryption at rest" style="whiteSpace=wrap;strokeWidth=2;" vertex="1" parent="1">
          <mxGeometry x="626" y="559" width="222" height="54" as="geometry" />
        </mxCell>
        <mxCell id="sFV-OwCciSmLxLvp4_ww-73" value="TLS in transit" style="whiteSpace=wrap;strokeWidth=2;" vertex="1" parent="1">
          <mxGeometry x="659" y="663" width="155" height="54" as="geometry" />
        </mxCell>
        <mxCell id="sFV-OwCciSmLxLvp4_ww-74" value="VPC only mode" style="whiteSpace=wrap;strokeWidth=2;" vertex="1" parent="1">
          <mxGeometry x="653" y="767" width="167" height="54" as="geometry" />
        </mxCell>
        <mxCell id="sFV-OwCciSmLxLvp4_ww-75" value="Interface endpoints PrivateLink" style="whiteSpace=wrap;strokeWidth=2;" vertex="1" parent="1">
          <mxGeometry x="607" y="871" width="260" height="78" as="geometry" />
        </mxCell>
        <mxCell id="sFV-OwCciSmLxLvp4_ww-76" value="Network isolation" style="whiteSpace=wrap;strokeWidth=2;" vertex="1" parent="1">
          <mxGeometry x="644" y="999" width="186" height="54" as="geometry" />
        </mxCell>
        <mxCell id="sFV-OwCciSmLxLvp4_ww-77" value="ECR images" style="whiteSpace=wrap;strokeWidth=2;" vertex="1" parent="1">
          <mxGeometry x="666" y="1103" width="142" height="54" as="geometry" />
        </mxCell>
        <mxCell id="sFV-OwCciSmLxLvp4_ww-78" value="S3 buckets and policies" style="whiteSpace=wrap;strokeWidth=2;" vertex="1" parent="1">
          <mxGeometry x="623" y="1207" width="226" height="54" as="geometry" />
        </mxCell>
        <mxCell id="sFV-OwCciSmLxLvp4_ww-79" value="CloudTrail audit" style="whiteSpace=wrap;strokeWidth=2;" vertex="1" parent="1">
          <mxGeometry x="650" y="1311" width="174" height="54" as="geometry" />
        </mxCell>
        <mxCell id="sFV-OwCciSmLxLvp4_ww-80" value="Neo compiler" style="whiteSpace=wrap;strokeWidth=2;" vertex="1" parent="1">
          <mxGeometry x="659" y="55" width="155" height="54" as="geometry" />
        </mxCell>
        <mxCell id="sFV-OwCciSmLxLvp4_ww-81" value="Feature store online dynadb offline s3" style="whiteSpace=wrap;strokeWidth=2;" vertex="1" parent="1">
          <mxGeometry x="607" y="159" width="260" height="78" as="geometry" />
        </mxCell>
        <mxCell id="sFV-OwCciSmLxLvp4_ww-82" value="Geospatial notebooks" style="whiteSpace=wrap;strokeWidth=2;" vertex="1" parent="1">
          <mxGeometry x="630" y="287" width="214" height="54" as="geometry" />
        </mxCell>
        <mxCell id="sFV-OwCciSmLxLvp4_ww-83" value="" style="curved=1;startArrow=none;endArrow=none;strokeWidth=3;exitX=0.51;exitY=1;entryX=0;entryY=0.5;rounded=0;" edge="1" parent="1" source="sFV-OwCciSmLxLvp4_ww-10" target="sFV-OwCciSmLxLvp4_ww-11">
          <mxGeometry relative="1" as="geometry">
            <Array as="points">
              <mxPoint x="248" y="3965" />
            </Array>
          </mxGeometry>
        </mxCell>
        <mxCell id="sFV-OwCciSmLxLvp4_ww-84" value="" style="curved=1;startArrow=none;endArrow=none;strokeWidth=3;exitX=0.73;exitY=0;entryX=0.36;entryY=1;rounded=0;" edge="1" parent="1" source="sFV-OwCciSmLxLvp4_ww-11" target="sFV-OwCciSmLxLvp4_ww-12">
          <mxGeometry relative="1" as="geometry">
            <Array as="points">
              <mxPoint x="892" y="3830" />
              <mxPoint x="942" y="3830" />
            </Array>
          </mxGeometry>
        </mxCell>
        <mxCell id="sFV-OwCciSmLxLvp4_ww-85" value="" style="curved=1;startArrow=none;endArrow=none;strokeWidth=3;exitX=0.52;exitY=1;entryX=0;entryY=0.5;rounded=0;" edge="1" parent="1" source="sFV-OwCciSmLxLvp4_ww-10" target="sFV-OwCciSmLxLvp4_ww-13">
          <mxGeometry relative="1" as="geometry">
            <Array as="points">
              <mxPoint x="248" y="2602" />
            </Array>
          </mxGeometry>
        </mxCell>
        <mxCell id="sFV-OwCciSmLxLvp4_ww-86" value="" style="curved=1;startArrow=none;endArrow=none;strokeWidth=3;exitX=0.57;exitY=1;entryX=0.41;entryY=0;rounded=0;" edge="1" parent="1" source="sFV-OwCciSmLxLvp4_ww-10" target="sFV-OwCciSmLxLvp4_ww-14">
          <mxGeometry relative="1" as="geometry">
            <Array as="points">
              <mxPoint x="248" y="2094" />
              <mxPoint x="1367" y="2094" />
            </Array>
          </mxGeometry>
        </mxCell>
        <mxCell id="sFV-OwCciSmLxLvp4_ww-87" value="" style="curved=1;startArrow=none;endArrow=none;strokeWidth=3;exitX=0.51;exitY=1;entryX=0;entryY=0.37;rounded=0;" edge="1" parent="1" source="sFV-OwCciSmLxLvp4_ww-10" target="sFV-OwCciSmLxLvp4_ww-15">
          <mxGeometry relative="1" as="geometry">
            <Array as="points">
              <mxPoint x="248" y="4421" />
              <mxPoint x="1677" y="4421" />
              <mxPoint x="1702" y="4085" />
              <mxPoint x="1992" y="4085" />
              <mxPoint x="2017" y="3743" />
              <mxPoint x="2042" y="3743" />
            </Array>
          </mxGeometry>
        </mxCell>
        <mxCell id="sFV-OwCciSmLxLvp4_ww-88" value="" style="curved=1;startArrow=none;endArrow=none;strokeWidth=3;exitX=0.73;exitY=0;entryX=0;entryY=0.5;rounded=0;" edge="1" parent="1" source="sFV-OwCciSmLxLvp4_ww-10" target="sFV-OwCciSmLxLvp4_ww-16">
          <mxGeometry relative="1" as="geometry">
            <Array as="points">
              <mxPoint x="248" y="1772" />
            </Array>
          </mxGeometry>
        </mxCell>
        <mxCell id="sFV-OwCciSmLxLvp4_ww-89" value="" style="curved=1;startArrow=none;endArrow=none;strokeWidth=3;exitX=0.56;exitY=0;entryX=0;entryY=0.5;rounded=0;" edge="1" parent="1" source="sFV-OwCciSmLxLvp4_ww-10" target="sFV-OwCciSmLxLvp4_ww-17">
          <mxGeometry relative="1" as="geometry">
            <Array as="points">
              <mxPoint x="248" y="1586" />
            </Array>
          </mxGeometry>
        </mxCell>
        <mxCell id="sFV-OwCciSmLxLvp4_ww-90" value="" style="curved=1;startArrow=none;endArrow=none;strokeWidth=3;exitX=0.52;exitY=0;entryX=0;entryY=0.5;rounded=0;" edge="1" parent="1" source="sFV-OwCciSmLxLvp4_ww-10" target="sFV-OwCciSmLxLvp4_ww-18">
          <mxGeometry relative="1" as="geometry">
            <Array as="points">
              <mxPoint x="248" y="892" />
            </Array>
          </mxGeometry>
        </mxCell>
        <mxCell id="sFV-OwCciSmLxLvp4_ww-91" value="" style="curved=1;startArrow=none;endArrow=none;strokeWidth=3;exitX=0.51;exitY=0;entryX=0;entryY=0.5;rounded=0;" edge="1" parent="1" source="sFV-OwCciSmLxLvp4_ww-10" target="sFV-OwCciSmLxLvp4_ww-19">
          <mxGeometry relative="1" as="geometry">
            <Array as="points">
              <mxPoint x="248" y="198" />
            </Array>
          </mxGeometry>
        </mxCell>
        <mxCell id="sFV-OwCciSmLxLvp4_ww-92" value="" style="curved=1;startArrow=none;endArrow=block;exitX=0.8;exitY=0;entryX=0;entryY=0.5;rounded=0;" edge="1" parent="1" source="sFV-OwCciSmLxLvp4_ww-11" target="sFV-OwCciSmLxLvp4_ww-20">
          <mxGeometry relative="1" as="geometry">
            <Array as="points">
              <mxPoint x="892" y="3861" />
            </Array>
          </mxGeometry>
        </mxCell>
        <mxCell id="sFV-OwCciSmLxLvp4_ww-93" value="" style="curved=1;startArrow=none;endArrow=block;exitX=1;exitY=0.5;entryX=0;entryY=0.5;rounded=0;" edge="1" parent="1" source="sFV-OwCciSmLxLvp4_ww-20" target="sFV-OwCciSmLxLvp4_ww-21">
          <mxGeometry relative="1" as="geometry">
            <Array as="points" />
          </mxGeometry>
        </mxCell>
        <mxCell id="sFV-OwCciSmLxLvp4_ww-94" value="" style="curved=1;startArrow=none;endArrow=block;exitX=1;exitY=0.5;entryX=0;entryY=0.5;rounded=0;" edge="1" parent="1" source="sFV-OwCciSmLxLvp4_ww-11" target="sFV-OwCciSmLxLvp4_ww-22">
          <mxGeometry relative="1" as="geometry">
            <Array as="points" />
          </mxGeometry>
        </mxCell>
        <mxCell id="sFV-OwCciSmLxLvp4_ww-95" value="" style="curved=1;startArrow=none;endArrow=block;exitX=0.8;exitY=1;entryX=0;entryY=0.5;rounded=0;" edge="1" parent="1" source="sFV-OwCciSmLxLvp4_ww-11" target="sFV-OwCciSmLxLvp4_ww-23">
          <mxGeometry relative="1" as="geometry">
            <Array as="points">
              <mxPoint x="892" y="4069" />
            </Array>
          </mxGeometry>
        </mxCell>
        <mxCell id="sFV-OwCciSmLxLvp4_ww-96" value="" style="curved=1;startArrow=none;endArrow=block;exitX=0.65;exitY=1;entryX=0;entryY=0.5;rounded=0;" edge="1" parent="1" source="sFV-OwCciSmLxLvp4_ww-11" target="sFV-OwCciSmLxLvp4_ww-24">
          <mxGeometry relative="1" as="geometry">
            <Array as="points">
              <mxPoint x="892" y="4173" />
            </Array>
          </mxGeometry>
        </mxCell>
        <mxCell id="sFV-OwCciSmLxLvp4_ww-97" value="" style="curved=1;startArrow=none;endArrow=block;exitX=0.58;exitY=1;entryX=0;entryY=0.5;rounded=0;" edge="1" parent="1" source="sFV-OwCciSmLxLvp4_ww-11" target="sFV-OwCciSmLxLvp4_ww-25">
          <mxGeometry relative="1" as="geometry">
            <Array as="points">
              <mxPoint x="892" y="4339" />
            </Array>
          </mxGeometry>
        </mxCell>
        <mxCell id="sFV-OwCciSmLxLvp4_ww-98" value="" style="curved=1;startArrow=none;endArrow=block;exitX=0.62;exitY=1;entryX=0;entryY=0.5;rounded=0;" edge="1" parent="1" source="sFV-OwCciSmLxLvp4_ww-11" target="sFV-OwCciSmLxLvp4_ww-26">
          <mxGeometry relative="1" as="geometry">
            <Array as="points">
              <mxPoint x="892" y="4235" />
            </Array>
          </mxGeometry>
        </mxCell>
        <mxCell id="sFV-OwCciSmLxLvp4_ww-99" value="" style="curved=1;startArrow=none;endArrow=block;exitX=0.6;exitY=1;entryX=0;entryY=0.5;rounded=0;" edge="1" parent="1" source="sFV-OwCciSmLxLvp4_ww-13" target="sFV-OwCciSmLxLvp4_ww-27">
          <mxGeometry relative="1" as="geometry">
            <Array as="points">
              <mxPoint x="557" y="2783" />
            </Array>
          </mxGeometry>
        </mxCell>
        <mxCell id="sFV-OwCciSmLxLvp4_ww-100" value="" style="curved=1;startArrow=none;endArrow=block;exitX=0.57;exitY=0;entryX=0;entryY=0.5;rounded=0;" edge="1" parent="1" source="sFV-OwCciSmLxLvp4_ww-13" target="sFV-OwCciSmLxLvp4_ww-28">
          <mxGeometry relative="1" as="geometry">
            <Array as="points">
              <mxPoint x="557" y="2367" />
            </Array>
          </mxGeometry>
        </mxCell>
        <mxCell id="sFV-OwCciSmLxLvp4_ww-101" value="" style="curved=1;startArrow=none;endArrow=block;exitX=0.63;exitY=0;entryX=0;entryY=0.5;rounded=0;" edge="1" parent="1" source="sFV-OwCciSmLxLvp4_ww-13" target="sFV-OwCciSmLxLvp4_ww-29">
          <mxGeometry relative="1" as="geometry">
            <Array as="points">
              <mxPoint x="557" y="2471" />
            </Array>
          </mxGeometry>
        </mxCell>
        <mxCell id="sFV-OwCciSmLxLvp4_ww-102" value="" style="curved=1;startArrow=none;endArrow=block;exitX=0.56;exitY=0;entryX=0.4;entryY=0;rounded=0;" edge="1" parent="1" source="sFV-OwCciSmLxLvp4_ww-13" target="sFV-OwCciSmLxLvp4_ww-30">
          <mxGeometry relative="1" as="geometry">
            <Array as="points">
              <mxPoint x="557" y="2305" />
              <mxPoint x="942" y="2305" />
            </Array>
          </mxGeometry>
        </mxCell>
        <mxCell id="sFV-OwCciSmLxLvp4_ww-103" value="" style="curved=1;startArrow=none;endArrow=block;exitX=1;exitY=0.11;entryX=0;entryY=0.5;rounded=0;" edge="1" parent="1" source="sFV-OwCciSmLxLvp4_ww-13" target="sFV-OwCciSmLxLvp4_ww-31">
          <mxGeometry relative="1" as="geometry">
            <Array as="points">
              <mxPoint x="557" y="2575" />
            </Array>
          </mxGeometry>
        </mxCell>
        <mxCell id="sFV-OwCciSmLxLvp4_ww-104" value="" style="curved=1;startArrow=none;endArrow=block;exitX=0.56;exitY=1;entryX=0;entryY=0.5;rounded=0;" edge="1" parent="1" source="sFV-OwCciSmLxLvp4_ww-13" target="sFV-OwCciSmLxLvp4_ww-32">
          <mxGeometry relative="1" as="geometry">
            <Array as="points">
              <mxPoint x="557" y="2872" />
            </Array>
          </mxGeometry>
        </mxCell>
        <mxCell id="sFV-OwCciSmLxLvp4_ww-105" value="" style="curved=1;startArrow=none;endArrow=block;exitX=0.72;exitY=1;entryX=0;entryY=0.5;rounded=0;" edge="1" parent="1" source="sFV-OwCciSmLxLvp4_ww-13" target="sFV-OwCciSmLxLvp4_ww-33">
          <mxGeometry relative="1" as="geometry">
            <Array as="points">
              <mxPoint x="557" y="2679" />
            </Array>
          </mxGeometry>
        </mxCell>
        <mxCell id="sFV-OwCciSmLxLvp4_ww-106" value="" style="curved=1;startArrow=none;endArrow=block;exitX=0.56;exitY=0;entryX=0;entryY=0.5;rounded=0;" edge="1" parent="1" source="sFV-OwCciSmLxLvp4_ww-14" target="sFV-OwCciSmLxLvp4_ww-34">
          <mxGeometry relative="1" as="geometry">
            <Array as="points">
              <mxPoint x="1677" y="1960" />
            </Array>
          </mxGeometry>
        </mxCell>
        <mxCell id="sFV-OwCciSmLxLvp4_ww-107" value="" style="curved=1;startArrow=none;endArrow=block;exitX=0.58;exitY=0;entryX=0;entryY=0.5;rounded=0;" edge="1" parent="1" source="sFV-OwCciSmLxLvp4_ww-14" target="sFV-OwCciSmLxLvp4_ww-35">
          <mxGeometry relative="1" as="geometry">
            <Array as="points">
              <mxPoint x="1677" y="2064" />
            </Array>
          </mxGeometry>
        </mxCell>
        <mxCell id="sFV-OwCciSmLxLvp4_ww-108" value="" style="curved=1;startArrow=none;endArrow=block;exitX=0.6;exitY=0;entryX=0;entryY=0.5;rounded=0;" edge="1" parent="1" source="sFV-OwCciSmLxLvp4_ww-14" target="sFV-OwCciSmLxLvp4_ww-36">
          <mxGeometry relative="1" as="geometry">
            <Array as="points">
              <mxPoint x="1677" y="2168" />
            </Array>
          </mxGeometry>
        </mxCell>
        <mxCell id="sFV-OwCciSmLxLvp4_ww-109" value="" style="curved=1;startArrow=none;endArrow=block;exitX=0.65;exitY=0;entryX=0;entryY=0.5;rounded=0;" edge="1" parent="1" source="sFV-OwCciSmLxLvp4_ww-14" target="sFV-OwCciSmLxLvp4_ww-37">
          <mxGeometry relative="1" as="geometry">
            <Array as="points">
              <mxPoint x="1677" y="2272" />
            </Array>
          </mxGeometry>
        </mxCell>
        <mxCell id="sFV-OwCciSmLxLvp4_ww-110" value="" style="curved=1;startArrow=none;endArrow=block;exitX=0.63;exitY=0;entryX=0;entryY=0.5;rounded=0;" edge="1" parent="1" source="sFV-OwCciSmLxLvp4_ww-37" target="sFV-OwCciSmLxLvp4_ww-38">
          <mxGeometry relative="1" as="geometry">
            <Array as="points">
              <mxPoint x="1992" y="2116" />
            </Array>
          </mxGeometry>
        </mxCell>
        <mxCell id="sFV-OwCciSmLxLvp4_ww-111" value="" style="curved=1;startArrow=none;endArrow=block;exitX=0.57;exitY=1;entryX=0;entryY=0.5;rounded=0;" edge="1" parent="1" source="sFV-OwCciSmLxLvp4_ww-37" target="sFV-OwCciSmLxLvp4_ww-39">
          <mxGeometry relative="1" as="geometry">
            <Array as="points">
              <mxPoint x="1992" y="2550" />
            </Array>
          </mxGeometry>
        </mxCell>
        <mxCell id="sFV-OwCciSmLxLvp4_ww-112" value="" style="curved=1;startArrow=none;endArrow=block;exitX=0.77;exitY=0;entryX=0;entryY=0.5;rounded=0;" edge="1" parent="1" source="sFV-OwCciSmLxLvp4_ww-14" target="sFV-OwCciSmLxLvp4_ww-40">
          <mxGeometry relative="1" as="geometry">
            <Array as="points">
              <mxPoint x="1677" y="2376" />
            </Array>
          </mxGeometry>
        </mxCell>
        <mxCell id="sFV-OwCciSmLxLvp4_ww-113" value="" style="curved=1;startArrow=none;endArrow=block;exitX=0.59;exitY=1;entryX=0;entryY=0.39;rounded=0;" edge="1" parent="1" source="sFV-OwCciSmLxLvp4_ww-14" target="sFV-OwCciSmLxLvp4_ww-41">
          <mxGeometry relative="1" as="geometry">
            <Array as="points">
              <mxPoint x="1677" y="2893" />
              <mxPoint x="2042" y="2893" />
            </Array>
          </mxGeometry>
        </mxCell>
        <mxCell id="sFV-OwCciSmLxLvp4_ww-114" value="" style="curved=1;startArrow=none;endArrow=block;exitX=0.81;exitY=1;entryX=0;entryY=0.5;rounded=0;" edge="1" parent="1" source="sFV-OwCciSmLxLvp4_ww-14" target="sFV-OwCciSmLxLvp4_ww-42">
          <mxGeometry relative="1" as="geometry">
            <Array as="points">
              <mxPoint x="1677" y="2623" />
            </Array>
          </mxGeometry>
        </mxCell>
        <mxCell id="sFV-OwCciSmLxLvp4_ww-115" value="" style="curved=1;startArrow=none;endArrow=block;exitX=0.66;exitY=1;entryX=0;entryY=0.5;rounded=0;" edge="1" parent="1" source="sFV-OwCciSmLxLvp4_ww-14" target="sFV-OwCciSmLxLvp4_ww-43">
          <mxGeometry relative="1" as="geometry">
            <Array as="points">
              <mxPoint x="1677" y="2727" />
            </Array>
          </mxGeometry>
        </mxCell>
        <mxCell id="sFV-OwCciSmLxLvp4_ww-116" value="" style="curved=1;startArrow=none;endArrow=block;exitX=0.61;exitY=1;entryX=0;entryY=0.5;rounded=0;" edge="1" parent="1" source="sFV-OwCciSmLxLvp4_ww-14" target="sFV-OwCciSmLxLvp4_ww-44">
          <mxGeometry relative="1" as="geometry">
            <Array as="points">
              <mxPoint x="1677" y="2831" />
            </Array>
          </mxGeometry>
        </mxCell>
        <mxCell id="sFV-OwCciSmLxLvp4_ww-117" value="" style="curved=1;startArrow=none;endArrow=block;exitX=0.99;exitY=0.44;entryX=0;entryY=0.5;rounded=0;" edge="1" parent="1" source="sFV-OwCciSmLxLvp4_ww-12" target="sFV-OwCciSmLxLvp4_ww-45">
          <mxGeometry relative="1" as="geometry">
            <Array as="points">
              <mxPoint x="1252" y="3521" />
            </Array>
          </mxGeometry>
        </mxCell>
        <mxCell id="sFV-OwCciSmLxLvp4_ww-118" value="" style="curved=1;startArrow=none;endArrow=block;exitX=0.99;exitY=0.05;entryX=0;entryY=0.5;rounded=0;" edge="1" parent="1" source="sFV-OwCciSmLxLvp4_ww-12" target="sFV-OwCciSmLxLvp4_ww-46">
          <mxGeometry relative="1" as="geometry">
            <Array as="points">
              <mxPoint x="1252" y="3459" />
            </Array>
          </mxGeometry>
        </mxCell>
        <mxCell id="sFV-OwCciSmLxLvp4_ww-119" value="" style="curved=1;startArrow=none;endArrow=block;exitX=0.84;exitY=1;entryX=0;entryY=0.5;rounded=0;" edge="1" parent="1" source="sFV-OwCciSmLxLvp4_ww-12" target="sFV-OwCciSmLxLvp4_ww-47">
          <mxGeometry relative="1" as="geometry">
            <Array as="points">
              <mxPoint x="1252" y="3645" />
            </Array>
          </mxGeometry>
        </mxCell>
        <mxCell id="sFV-OwCciSmLxLvp4_ww-120" value="" style="curved=1;startArrow=none;endArrow=block;exitX=0.72;exitY=1;entryX=0;entryY=0.5;rounded=0;" edge="1" parent="1" source="sFV-OwCciSmLxLvp4_ww-12" target="sFV-OwCciSmLxLvp4_ww-48">
          <mxGeometry relative="1" as="geometry">
            <Array as="points">
              <mxPoint x="1252" y="3707" />
            </Array>
          </mxGeometry>
        </mxCell>
        <mxCell id="sFV-OwCciSmLxLvp4_ww-121" value="" style="curved=1;startArrow=none;endArrow=block;exitX=0.99;exitY=0.83;entryX=0;entryY=0.5;rounded=0;" edge="1" parent="1" source="sFV-OwCciSmLxLvp4_ww-12" target="sFV-OwCciSmLxLvp4_ww-49">
          <mxGeometry relative="1" as="geometry">
            <Array as="points">
              <mxPoint x="1252" y="3583" />
            </Array>
          </mxGeometry>
        </mxCell>
        <mxCell id="sFV-OwCciSmLxLvp4_ww-122" value="" style="curved=1;startArrow=none;endArrow=block;exitX=0.55;exitY=0;entryX=0;entryY=0.5;rounded=0;" edge="1" parent="1" source="sFV-OwCciSmLxLvp4_ww-15" target="sFV-OwCciSmLxLvp4_ww-50">
          <mxGeometry relative="1" as="geometry">
            <Array as="points">
              <mxPoint x="2352" y="3337" />
            </Array>
          </mxGeometry>
        </mxCell>
        <mxCell id="sFV-OwCciSmLxLvp4_ww-123" value="" style="curved=1;startArrow=none;endArrow=block;exitX=0.57;exitY=0;entryX=0;entryY=0.5;rounded=0;" edge="1" parent="1" source="sFV-OwCciSmLxLvp4_ww-15" target="sFV-OwCciSmLxLvp4_ww-51">
          <mxGeometry relative="1" as="geometry">
            <Array as="points">
              <mxPoint x="2352" y="3441" />
            </Array>
          </mxGeometry>
        </mxCell>
        <mxCell id="sFV-OwCciSmLxLvp4_ww-124" value="" style="curved=1;startArrow=none;endArrow=block;exitX=0.6;exitY=0;entryX=0;entryY=0.5;rounded=0;" edge="1" parent="1" source="sFV-OwCciSmLxLvp4_ww-15" target="sFV-OwCciSmLxLvp4_ww-52">
          <mxGeometry relative="1" as="geometry">
            <Array as="points">
              <mxPoint x="2352" y="3545" />
            </Array>
          </mxGeometry>
        </mxCell>
        <mxCell id="sFV-OwCciSmLxLvp4_ww-125" value="" style="curved=1;startArrow=none;endArrow=block;exitX=0.69;exitY=0;entryX=0;entryY=0.5;rounded=0;" edge="1" parent="1" source="sFV-OwCciSmLxLvp4_ww-15" target="sFV-OwCciSmLxLvp4_ww-53">
          <mxGeometry relative="1" as="geometry">
            <Array as="points">
              <mxPoint x="2352" y="3649" />
            </Array>
          </mxGeometry>
        </mxCell>
        <mxCell id="sFV-OwCciSmLxLvp4_ww-126" value="" style="curved=1;startArrow=none;endArrow=block;exitX=1;exitY=0.5;entryX=0;entryY=0.5;rounded=0;" edge="1" parent="1" source="sFV-OwCciSmLxLvp4_ww-15" target="sFV-OwCciSmLxLvp4_ww-54">
          <mxGeometry relative="1" as="geometry">
            <Array as="points" />
          </mxGeometry>
        </mxCell>
        <mxCell id="sFV-OwCciSmLxLvp4_ww-127" value="" style="curved=1;startArrow=none;endArrow=block;exitX=0.61;exitY=1;entryX=0;entryY=0.5;rounded=0;" edge="1" parent="1" source="sFV-OwCciSmLxLvp4_ww-15" target="sFV-OwCciSmLxLvp4_ww-55">
          <mxGeometry relative="1" as="geometry">
            <Array as="points">
              <mxPoint x="2352" y="3928" />
            </Array>
          </mxGeometry>
        </mxCell>
        <mxCell id="sFV-OwCciSmLxLvp4_ww-128" value="" style="curved=1;startArrow=none;endArrow=block;exitX=0.57;exitY=1;entryX=0;entryY=0.5;rounded=0;" edge="1" parent="1" source="sFV-OwCciSmLxLvp4_ww-15" target="sFV-OwCciSmLxLvp4_ww-56">
          <mxGeometry relative="1" as="geometry">
            <Array as="points">
              <mxPoint x="2352" y="4032" />
            </Array>
          </mxGeometry>
        </mxCell>
        <mxCell id="sFV-OwCciSmLxLvp4_ww-129" value="" style="curved=1;startArrow=none;endArrow=block;exitX=0.55;exitY=1;entryX=0;entryY=0.5;rounded=0;" edge="1" parent="1" source="sFV-OwCciSmLxLvp4_ww-15" target="sFV-OwCciSmLxLvp4_ww-57">
          <mxGeometry relative="1" as="geometry">
            <Array as="points">
              <mxPoint x="2352" y="4136" />
            </Array>
          </mxGeometry>
        </mxCell>
        <mxCell id="sFV-OwCciSmLxLvp4_ww-130" value="" style="curved=1;startArrow=none;endArrow=block;exitX=0.54;exitY=1;entryX=0;entryY=0.5;rounded=0;" edge="1" parent="1" source="sFV-OwCciSmLxLvp4_ww-15" target="sFV-OwCciSmLxLvp4_ww-58">
          <mxGeometry relative="1" as="geometry">
            <Array as="points">
              <mxPoint x="2352" y="4240" />
            </Array>
          </mxGeometry>
        </mxCell>
        <mxCell id="sFV-OwCciSmLxLvp4_ww-131" value="" style="curved=1;startArrow=none;endArrow=block;exitX=0.54;exitY=1;entryX=0.07;entryY=0;rounded=0;" edge="1" parent="1" source="sFV-OwCciSmLxLvp4_ww-15" target="sFV-OwCciSmLxLvp4_ww-59">
          <mxGeometry relative="1" as="geometry">
            <Array as="points">
              <mxPoint x="2352" y="4302" />
              <mxPoint x="2377" y="4302" />
            </Array>
          </mxGeometry>
        </mxCell>
        <mxCell id="sFV-OwCciSmLxLvp4_ww-132" value="" style="curved=1;startArrow=none;endArrow=block;exitX=1;exitY=0.97;entryX=0;entryY=0.5;rounded=0;" edge="1" parent="1" source="sFV-OwCciSmLxLvp4_ww-16" target="sFV-OwCciSmLxLvp4_ww-60">
          <mxGeometry relative="1" as="geometry">
            <Array as="points">
              <mxPoint x="1677" y="1816" />
            </Array>
          </mxGeometry>
        </mxCell>
        <mxCell id="sFV-OwCciSmLxLvp4_ww-133" value="" style="curved=1;startArrow=none;endArrow=block;exitX=0.6;exitY=0;entryX=0;entryY=0.5;rounded=0;" edge="1" parent="1" source="sFV-OwCciSmLxLvp4_ww-16" target="sFV-OwCciSmLxLvp4_ww-61">
          <mxGeometry relative="1" as="geometry">
            <Array as="points">
              <mxPoint x="1677" y="1546" />
            </Array>
          </mxGeometry>
        </mxCell>
        <mxCell id="sFV-OwCciSmLxLvp4_ww-134" value="" style="curved=1;startArrow=none;endArrow=block;exitX=0.66;exitY=0;entryX=0;entryY=0.5;rounded=0;" edge="1" parent="1" source="sFV-OwCciSmLxLvp4_ww-61" target="sFV-OwCciSmLxLvp4_ww-62">
          <mxGeometry relative="1" as="geometry">
            <Array as="points">
              <mxPoint x="1992" y="1390" />
            </Array>
          </mxGeometry>
        </mxCell>
        <mxCell id="sFV-OwCciSmLxLvp4_ww-135" value="" style="curved=1;startArrow=none;endArrow=block;exitX=0.97;exitY=0;entryX=0;entryY=0.5;rounded=0;" edge="1" parent="1" source="sFV-OwCciSmLxLvp4_ww-61" target="sFV-OwCciSmLxLvp4_ww-63">
          <mxGeometry relative="1" as="geometry">
            <Array as="points">
              <mxPoint x="1992" y="1494" />
            </Array>
          </mxGeometry>
        </mxCell>
        <mxCell id="sFV-OwCciSmLxLvp4_ww-136" value="" style="curved=1;startArrow=none;endArrow=block;exitX=0.97;exitY=1;entryX=0;entryY=0.5;rounded=0;" edge="1" parent="1" source="sFV-OwCciSmLxLvp4_ww-61" target="sFV-OwCciSmLxLvp4_ww-64">
          <mxGeometry relative="1" as="geometry">
            <Array as="points">
              <mxPoint x="1992" y="1598" />
            </Array>
          </mxGeometry>
        </mxCell>
        <mxCell id="sFV-OwCciSmLxLvp4_ww-137" value="" style="curved=1;startArrow=none;endArrow=block;exitX=0.66;exitY=1;entryX=0;entryY=0.5;rounded=0;" edge="1" parent="1" source="sFV-OwCciSmLxLvp4_ww-61" target="sFV-OwCciSmLxLvp4_ww-65">
          <mxGeometry relative="1" as="geometry">
            <Array as="points">
              <mxPoint x="1992" y="1702" />
            </Array>
          </mxGeometry>
        </mxCell>
        <mxCell id="sFV-OwCciSmLxLvp4_ww-138" value="" style="curved=1;startArrow=none;endArrow=block;exitX=0.69;exitY=0;entryX=0;entryY=0.5;rounded=0;" edge="1" parent="1" source="sFV-OwCciSmLxLvp4_ww-16" target="sFV-OwCciSmLxLvp4_ww-66">
          <mxGeometry relative="1" as="geometry">
            <Array as="points">
              <mxPoint x="1677" y="1650" />
            </Array>
          </mxGeometry>
        </mxCell>
        <mxCell id="sFV-OwCciSmLxLvp4_ww-139" value="" style="curved=1;startArrow=none;endArrow=block;exitX=1;exitY=0.31;entryX=0;entryY=0.5;rounded=0;" edge="1" parent="1" source="sFV-OwCciSmLxLvp4_ww-16" target="sFV-OwCciSmLxLvp4_ww-67">
          <mxGeometry relative="1" as="geometry">
            <Array as="points">
              <mxPoint x="1677" y="1754" />
            </Array>
          </mxGeometry>
        </mxCell>
        <mxCell id="sFV-OwCciSmLxLvp4_ww-140" value="" style="curved=1;startArrow=none;endArrow=block;exitX=0.76;exitY=0;entryX=0;entryY=0.5;rounded=0;" edge="1" parent="1" source="sFV-OwCciSmLxLvp4_ww-17" target="sFV-OwCciSmLxLvp4_ww-68">
          <mxGeometry relative="1" as="geometry">
            <Array as="points">
              <mxPoint x="557" y="1482" />
            </Array>
          </mxGeometry>
        </mxCell>
        <mxCell id="sFV-OwCciSmLxLvp4_ww-141" value="" style="curved=1;startArrow=none;endArrow=block;exitX=1;exitY=0.5;entryX=0;entryY=0.5;rounded=0;" edge="1" parent="1" source="sFV-OwCciSmLxLvp4_ww-17" target="sFV-OwCciSmLxLvp4_ww-69">
          <mxGeometry relative="1" as="geometry">
            <Array as="points" />
          </mxGeometry>
        </mxCell>
        <mxCell id="sFV-OwCciSmLxLvp4_ww-142" value="" style="curved=1;startArrow=none;endArrow=block;exitX=0.76;exitY=1;entryX=0;entryY=0.5;rounded=0;" edge="1" parent="1" source="sFV-OwCciSmLxLvp4_ww-17" target="sFV-OwCciSmLxLvp4_ww-70">
          <mxGeometry relative="1" as="geometry">
            <Array as="points">
              <mxPoint x="557" y="1690" />
            </Array>
          </mxGeometry>
        </mxCell>
        <mxCell id="sFV-OwCciSmLxLvp4_ww-143" value="" style="curved=1;startArrow=none;endArrow=block;exitX=0.54;exitY=0;entryX=0;entryY=0.5;rounded=0;" edge="1" parent="1" source="sFV-OwCciSmLxLvp4_ww-18" target="sFV-OwCciSmLxLvp4_ww-71">
          <mxGeometry relative="1" as="geometry">
            <Array as="points">
              <mxPoint x="557" y="470" />
            </Array>
          </mxGeometry>
        </mxCell>
        <mxCell id="sFV-OwCciSmLxLvp4_ww-144" value="" style="curved=1;startArrow=none;endArrow=block;exitX=0.55;exitY=0;entryX=0;entryY=0.5;rounded=0;" edge="1" parent="1" source="sFV-OwCciSmLxLvp4_ww-18" target="sFV-OwCciSmLxLvp4_ww-72">
          <mxGeometry relative="1" as="geometry">
            <Array as="points">
              <mxPoint x="557" y="586" />
            </Array>
          </mxGeometry>
        </mxCell>
        <mxCell id="sFV-OwCciSmLxLvp4_ww-145" value="" style="curved=1;startArrow=none;endArrow=block;exitX=0.58;exitY=0;entryX=0;entryY=0.5;rounded=0;" edge="1" parent="1" source="sFV-OwCciSmLxLvp4_ww-18" target="sFV-OwCciSmLxLvp4_ww-73">
          <mxGeometry relative="1" as="geometry">
            <Array as="points">
              <mxPoint x="557" y="690" />
            </Array>
          </mxGeometry>
        </mxCell>
        <mxCell id="sFV-OwCciSmLxLvp4_ww-146" value="" style="curved=1;startArrow=none;endArrow=block;exitX=0.67;exitY=0;entryX=0;entryY=0.5;rounded=0;" edge="1" parent="1" source="sFV-OwCciSmLxLvp4_ww-18" target="sFV-OwCciSmLxLvp4_ww-74">
          <mxGeometry relative="1" as="geometry">
            <Array as="points">
              <mxPoint x="557" y="794" />
            </Array>
          </mxGeometry>
        </mxCell>
        <mxCell id="sFV-OwCciSmLxLvp4_ww-147" value="" style="curved=1;startArrow=none;endArrow=block;exitX=1;exitY=0.77;entryX=0;entryY=0.5;rounded=0;" edge="1" parent="1" source="sFV-OwCciSmLxLvp4_ww-18" target="sFV-OwCciSmLxLvp4_ww-75">
          <mxGeometry relative="1" as="geometry">
            <Array as="points">
              <mxPoint x="557" y="910" />
            </Array>
          </mxGeometry>
        </mxCell>
        <mxCell id="sFV-OwCciSmLxLvp4_ww-148" value="" style="curved=1;startArrow=none;endArrow=block;exitX=0.62;exitY=1;entryX=0;entryY=0.5;rounded=0;" edge="1" parent="1" source="sFV-OwCciSmLxLvp4_ww-18" target="sFV-OwCciSmLxLvp4_ww-76">
          <mxGeometry relative="1" as="geometry">
            <Array as="points">
              <mxPoint x="557" y="1026" />
            </Array>
          </mxGeometry>
        </mxCell>
        <mxCell id="sFV-OwCciSmLxLvp4_ww-149" value="" style="curved=1;startArrow=none;endArrow=block;exitX=0.57;exitY=1;entryX=0;entryY=0.5;rounded=0;" edge="1" parent="1" source="sFV-OwCciSmLxLvp4_ww-18" target="sFV-OwCciSmLxLvp4_ww-77">
          <mxGeometry relative="1" as="geometry">
            <Array as="points">
              <mxPoint x="557" y="1130" />
            </Array>
          </mxGeometry>
        </mxCell>
        <mxCell id="sFV-OwCciSmLxLvp4_ww-150" value="" style="curved=1;startArrow=none;endArrow=block;exitX=0.55;exitY=1;entryX=0;entryY=0.5;rounded=0;" edge="1" parent="1" source="sFV-OwCciSmLxLvp4_ww-18" target="sFV-OwCciSmLxLvp4_ww-78">
          <mxGeometry relative="1" as="geometry">
            <Array as="points">
              <mxPoint x="557" y="1234" />
            </Array>
          </mxGeometry>
        </mxCell>
        <mxCell id="sFV-OwCciSmLxLvp4_ww-151" value="" style="curved=1;startArrow=none;endArrow=block;exitX=0.54;exitY=1;entryX=0;entryY=0.5;rounded=0;" edge="1" parent="1" source="sFV-OwCciSmLxLvp4_ww-18" target="sFV-OwCciSmLxLvp4_ww-79">
          <mxGeometry relative="1" as="geometry">
            <Array as="points">
              <mxPoint x="557" y="1338" />
            </Array>
          </mxGeometry>
        </mxCell>
        <mxCell id="sFV-OwCciSmLxLvp4_ww-152" value="" style="curved=1;startArrow=none;endArrow=block;exitX=0.65;exitY=0;entryX=0;entryY=0.5;rounded=0;" edge="1" parent="1" source="sFV-OwCciSmLxLvp4_ww-19" target="sFV-OwCciSmLxLvp4_ww-80">
          <mxGeometry relative="1" as="geometry">
            <Array as="points">
              <mxPoint x="557" y="82" />
            </Array>
          </mxGeometry>
        </mxCell>
        <mxCell id="sFV-OwCciSmLxLvp4_ww-153" value="" style="curved=1;startArrow=none;endArrow=block;exitX=1;exitY=0.5;entryX=0;entryY=0.5;rounded=0;" edge="1" parent="1" source="sFV-OwCciSmLxLvp4_ww-19" target="sFV-OwCciSmLxLvp4_ww-81">
          <mxGeometry relative="1" as="geometry">
            <Array as="points" />
          </mxGeometry>
        </mxCell>
        <mxCell id="sFV-OwCciSmLxLvp4_ww-154" value="" style="curved=1;startArrow=none;endArrow=block;exitX=0.65;exitY=1;entryX=0;entryY=0.5;rounded=0;" edge="1" parent="1" source="sFV-OwCciSmLxLvp4_ww-19" target="sFV-OwCciSmLxLvp4_ww-82">
          <mxGeometry relative="1" as="geometry">
            <Array as="points">
              <mxPoint x="557" y="314" />
            </Array>
          </mxGeometry>
        </mxCell>
        <mxCell id="sFV-OwCciSmLxLvp4_ww-155" value="" style="curved=1;startArrow=none;endArrow=block;exitX=1;exitY=0.5;entryX=0.1;entryY=1;rounded=0;" edge="1" parent="1" source="sFV-OwCciSmLxLvp4_ww-26" target="sFV-OwCciSmLxLvp4_ww-45">
          <mxGeometry relative="1" as="geometry">
            <Array as="points">
              <mxPoint x="1677" y="4235" />
              <mxPoint x="1702" y="3583" />
            </Array>
          </mxGeometry>
        </mxCell>
        <mxCell id="sFV-OwCciSmLxLvp4_ww-156" value="" style="curved=1;startArrow=none;endArrow=block;exitX=1;exitY=0.5;entryX=0.4;entryY=1;rounded=0;" edge="1" parent="1" source="sFV-OwCciSmLxLvp4_ww-27" target="sFV-OwCciSmLxLvp4_ww-30">
          <mxGeometry relative="1" as="geometry">
            <Array as="points">
              <mxPoint x="942" y="2783" />
            </Array>
          </mxGeometry>
        </mxCell>
        <mxCell id="sFV-OwCciSmLxLvp4_ww-157" value="" style="curved=1;startArrow=none;endArrow=block;exitX=1;exitY=0.5;entryX=0;entryY=0.74;rounded=0;" edge="1" parent="1" source="sFV-OwCciSmLxLvp4_ww-30" target="sFV-OwCciSmLxLvp4_ww-14">
          <mxGeometry relative="1" as="geometry">
            <Array as="points">
              <mxPoint x="1367" y="2544" />
            </Array>
          </mxGeometry>
        </mxCell>
        <mxCell id="sFV-OwCciSmLxLvp4_ww-158" value="features" style="curved=1;dashed=1;dashPattern=2 3;startArrow=none;endArrow=block;exitX=1;exitY=0.5;entryX=0.4;entryY=1;rounded=0;" edge="1" parent="1" source="sFV-OwCciSmLxLvp4_ww-32" target="sFV-OwCciSmLxLvp4_ww-14">
          <mxGeometry relative="1" as="geometry">
            <Array as="points">
              <mxPoint x="1367" y="2872" />
            </Array>
          </mxGeometry>
        </mxCell>
        <mxCell id="sFV-OwCciSmLxLvp4_ww-159" value="" style="curved=1;startArrow=none;endArrow=block;exitX=0.58;exitY=1;entryX=0.47;entryY=0;rounded=0;" edge="1" parent="1" source="sFV-OwCciSmLxLvp4_ww-14" target="sFV-OwCciSmLxLvp4_ww-47">
          <mxGeometry relative="1" as="geometry">
            <Array as="points">
              <mxPoint x="1677" y="2930" />
              <mxPoint x="1702" y="2930" />
            </Array>
          </mxGeometry>
        </mxCell>
        <mxCell id="sFV-OwCciSmLxLvp4_ww-160" value="" style="curved=1;startArrow=none;endArrow=block;exitX=1;exitY=0.5;entryX=0;entryY=0.63;rounded=0;" edge="1" parent="1" source="sFV-OwCciSmLxLvp4_ww-47" target="sFV-OwCciSmLxLvp4_ww-15">
          <mxGeometry relative="1" as="geometry">
            <Array as="points">
              <mxPoint x="1992" y="3645" />
              <mxPoint x="2017" y="3763" />
              <mxPoint x="2042" y="3763" />
            </Array>
          </mxGeometry>
        </mxCell>
        <mxCell id="sFV-OwCciSmLxLvp4_ww-161" value="" style="curved=1;startArrow=none;endArrow=block;exitX=0.55;exitY=0;entryX=0.48;entryY=1;rounded=0;" edge="1" parent="1" source="sFV-OwCciSmLxLvp4_ww-15" target="sFV-OwCciSmLxLvp4_ww-60">
          <mxGeometry relative="1" as="geometry">
            <Array as="points">
              <mxPoint x="2352" y="3306" />
              <mxPoint x="2377" y="3306" />
            </Array>
          </mxGeometry>
        </mxCell>
        <mxCell id="sFV-OwCciSmLxLvp4_ww-162" value="" style="curved=1;startArrow=none;endArrow=block;exitX=0.81;exitY=1;entryX=0.48;entryY=0;rounded=0;" edge="1" parent="1" source="sFV-OwCciSmLxLvp4_ww-16" target="sFV-OwCciSmLxLvp4_ww-45">
          <mxGeometry relative="1" as="geometry">
            <Array as="points">
              <mxPoint x="1677" y="1847" />
              <mxPoint x="1702" y="1847" />
            </Array>
          </mxGeometry>
        </mxCell>
        <mxCell id="sFV-OwCciSmLxLvp4_ww-163" value="" style="curved=1;startArrow=none;endArrow=block;exitX=1;exitY=0.5;entryX=0;entryY=0.79;rounded=0;" edge="1" parent="1" source="sFV-OwCciSmLxLvp4_ww-45" target="sFV-OwCciSmLxLvp4_ww-41">
          <mxGeometry relative="1" as="geometry">
            <Array as="points">
              <mxPoint x="1992" y="3521" />
              <mxPoint x="2017" y="2930" />
              <mxPoint x="2042" y="2930" />
            </Array>
          </mxGeometry>
        </mxCell>
        <mxCell id="sFV-OwCciSmLxLvp4_ww-164" value="" style="curved=1;startArrow=none;endArrow=block;exitX=1;exitY=0.5;entryX=0.11;entryY=1;rounded=0;" edge="1" parent="1" source="sFV-OwCciSmLxLvp4_ww-48" target="sFV-OwCciSmLxLvp4_ww-47">
          <mxGeometry relative="1" as="geometry">
            <Array as="points">
              <mxPoint x="1702" y="3707" />
            </Array>
          </mxGeometry>
        </mxCell>
        <mxCell id="sFV-OwCciSmLxLvp4_ww-165" value="" style="curved=1;startArrow=none;endArrow=block;exitX=1;exitY=0.5;entryX=0;entryY=0.61;rounded=0;" edge="1" parent="1" source="sFV-OwCciSmLxLvp4_ww-25" target="sFV-OwCciSmLxLvp4_ww-59">
          <mxGeometry relative="1" as="geometry">
            <Array as="points">
              <mxPoint x="1677" y="4339" />
              <mxPoint x="1702" y="4365" />
              <mxPoint x="2377" y="4365" />
            </Array>
          </mxGeometry>
        </mxCell>
      </root>
    </mxGraphModel>
  </diagram>
</mxfile>
